<?xml version="1.0" standalone="no"?>
<!DOCTYPE svg PUBLIC "-//W3C//DTD SVG 20010904//EN"
 "http://www.w3.org/TR/2001/REC-SVG-20010904/DTD/svg10.dtd">
<svg version="1.0" xmlns="http://www.w3.org/2000/svg"
 width="610.000000pt" height="610.000000pt" viewBox="0 0 610.000000 610.000000"
 preserveAspectRatio="xMidYMid meet">
<metadata>
Created by potrace 1.14, written by Peter Selinger 2001-2017
</metadata>
<g transform="translate(0.000000,610.000000) scale(0.100000,-0.100000)"
fill="#000000" stroke="none">
<path d="M2791 5903 c-13 -35 -44 -87 -53 -91 -5 -2 -8 -9 -8 -15 0 -7 -16
-43 -35 -80 -19 -38 -35 -72 -35 -77 0 -4 -15 -41 -34 -82 -18 -40 -48 -111
-66 -158 -18 -47 -42 -107 -52 -135 -58 -151 -96 -363 -94 -530 0 -69 -2 -125
-5 -125 -4 0 -5 -13 -3 -30 2 -16 0 -30 -5 -30 -18 0 -217 89 -291 130 -41 23
-120 64 -175 92 -55 27 -140 76 -190 109 -49 32 -108 69 -130 80 -22 12 -42
24 -45 28 -3 3 -17 12 -32 20 -16 8 -28 18 -28 23 0 5 -9 4 -20 -2 -16 -8 -18
-8 -14 4 3 9 -8 24 -31 39 -64 43 -235 216 -319 322 -26 33 -53 67 -60 75 -21
27 -84 134 -108 185 -12 27 -34 62 -48 76 -14 15 -26 37 -27 49 -2 28 -12 38
-22 22 -11 -18 -3 -349 14 -532 9 -102 33 -271 50 -350 3 -14 7 -34 9 -45 2
-11 9 -40 16 -65 7 -25 13 -49 14 -55 28 -126 125 -380 191 -500 84 -151 143
-227 315 -407 69 -71 126 -134 128 -139 6 -16 -53 -2 -113 27 -33 17 -87 38
-120 48 -33 10 -80 27 -104 38 -24 11 -52 17 -62 15 -11 -3 -19 -1 -19 4 0 5
-89 53 -198 107 -117 58 -207 108 -222 125 -14 16 -56 54 -95 85 -38 31 -74
62 -78 69 -4 7 -20 25 -35 38 -38 35 -38 17 -2 -100 17 -55 32 -108 35 -118 5
-21 63 -183 75 -212 5 -11 21 -49 36 -85 74 -182 231 -437 262 -425 11 4 12 2
4 -8 -9 -10 -7 -17 6 -29 9 -8 64 -65 120 -126 57 -62 109 -109 115 -105 6 3
7 1 3 -5 -7 -11 151 -122 173 -122 5 0 11 -6 14 -12 3 -10 8 -10 21 1 14 12
16 12 10 -2 -4 -12 14 -26 75 -56 44 -23 89 -41 98 -42 14 0 15 -2 3 -6 -8 -3
-18 -11 -22 -16 -8 -13 -89 -11 -253 7 -184 20 -407 85 -550 161 l-85 45 0
-25 c0 -14 3 -25 8 -25 4 0 23 -26 42 -57 156 -253 286 -413 435 -536 40 -32
205 -139 205 -131 0 3 12 -1 28 -9 15 -8 38 -19 52 -25 131 -57 138 -60 150
-49 9 9 11 8 8 -2 -2 -10 15 -21 50 -34 56 -21 58 -39 4 -50 -15 -3 -40 -11
-57 -18 -16 -7 -33 -12 -37 -11 -5 1 -8 -3 -8 -9 0 -8 -4 -8 -12 -2 -7 6 -84
10 -171 11 -88 1 -166 4 -175 6 -10 3 -37 8 -61 11 -24 3 -52 10 -62 16 -11 5
-19 7 -19 5 0 -3 -12 -1 -28 5 -41 16 -82 21 -82 10 0 -5 15 -21 32 -36 18
-14 47 -37 63 -51 80 -68 264 -214 269 -214 3 0 24 -13 48 -29 147 -99 358
-172 543 -186 124 -10 162 -17 191 -37 l31 -21 -18 -36 c-27 -55 -97 -242
-113 -302 -13 -49 -43 -133 -65 -184 -16 -36 -61 -184 -61 -200 0 -8 -4 -15
-8 -15 -4 0 -8 -10 -9 -22 -3 -31 -50 -180 -79 -248 -21 -49 -46 -117 -121
-319 -13 -36 -20 -68 -15 -73 10 -10 526 508 517 521 -3 6 0 8 8 5 17 -6 261
229 249 241 -4 5 -2 5 5 1 7 -4 39 19 79 59 37 36 90 85 118 108 28 23 82 74
121 112 38 39 86 82 105 96 56 42 160 145 160 159 0 8 3 10 6 7 11 -11 94 53
163 125 20 21 41 38 48 38 6 0 13 3 15 8 2 4 32 29 68 57 36 27 67 53 68 57 2
5 8 8 13 8 5 0 19 9 31 19 20 17 296 238 387 309 19 15 40 33 47 40 26 25 74
101 74 116 0 9 5 16 10 16 6 0 10 6 9 13 -3 25 1 38 11 32 6 -3 10 1 10 9 0 9
3 16 8 16 4 0 21 20 37 45 17 24 33 45 38 45 4 0 7 6 7 13 0 7 8 22 18 33 9
10 44 60 77 109 33 50 63 92 66 95 9 7 40 70 35 70 -2 0 12 18 32 39 20 21 46
51 57 67 11 15 30 40 43 56 13 15 20 33 16 39 -4 8 -3 9 4 5 6 -4 26 10 44 30
18 21 43 48 55 61 12 14 23 28 25 31 2 4 23 24 48 44 98 81 122 106 115 119
-6 8 -4 10 4 5 7 -5 35 7 66 28 30 19 64 37 77 40 50 9 124 29 142 39 41 21
149 26 199 10 26 -8 56 -13 67 -10 11 3 20 2 20 -3 0 -7 30 -18 73 -27 10 -1
47 -12 83 -24 35 -11 71 -22 79 -23 8 -1 18 -5 21 -9 4 -4 14 -1 22 6 10 7 13
8 9 1 -7 -12 20 -21 143 -49 50 -11 66 -12 72 -2 6 9 8 8 8 -3 0 -11 12 -16
43 -17 23 -1 66 -4 95 -7 29 -2 52 -1 50 3 -3 7 -88 83 -182 162 -16 13 -34
29 -40 34 -6 6 -38 33 -71 60 -33 27 -85 74 -116 105 -97 95 -149 140 -161
140 -6 0 -9 3 -5 6 10 10 -296 161 -328 162 -17 1 -40 3 -52 6 -31 6 -64 -4
-56 -18 4 -6 0 -6 -9 2 -10 8 -33 11 -62 8 -76 -8 -232 -52 -257 -73 -8 -7
-25 -13 -37 -13 -11 0 -56 -17 -99 -39 -43 -21 -107 -52 -143 -69 -36 -17 -75
-40 -86 -51 -12 -11 -24 -17 -27 -14 -7 6 -134 -54 -142 -67 -3 -4 -16 -11
-30 -14 -22 -6 -83 -41 -112 -66 -9 -8 -13 -7 -13 1 0 8 -5 8 -17 -2 -17 -12
-17 -12 -2 5 15 17 15 22 -3 69 -11 29 -21 57 -22 62 -1 6 -9 24 -16 40 -7 17
-20 46 -28 65 -38 89 -85 180 -93 180 -4 0 -6 6 -4 13 3 6 -15 43 -40 80 -25
38 -45 71 -45 73 0 5 -92 146 -100 154 -3 3 -13 18 -23 33 -11 16 -23 25 -30
21 -9 -5 -9 -4 0 6 8 9 6 21 -10 49 -12 20 -24 38 -27 41 -4 3 -22 28 -40 55
-19 28 -38 55 -42 60 -4 6 -18 24 -31 40 -13 17 -46 66 -72 110 -65 108 -183
287 -237 360 -25 33 -49 74 -56 90 -6 17 -23 62 -38 100 -39 101 -85 228 -89
245 -2 8 -13 50 -25 93 -12 43 -23 91 -26 105 -2 15 -8 53 -12 84 -5 32 -8
110 -7 173 0 63 0 115 -1 115 -1 0 -7 -12 -13 -27z m-64 -208 c0 -8 -4 -12 -9
-9 -5 3 -6 10 -3 15 9 13 12 11 12 -6z m43 -515 c0 -5 -2 -10 -4 -10 -3 0 -8
5 -11 10 -3 6 -1 10 4 10 6 0 11 -4 11 -10z m-210 -200 c12 -8 11 -10 -7 -10
-13 0 -23 5 -23 10 0 13 11 13 30 0z m-1259 -87 c13 -16 12 -17 -3 -4 -10 7
-18 15 -18 17 0 8 8 3 21 -13z m1236 -115 c-3 -7 -5 -2 -5 12 0 14 2 19 5 13
2 -7 2 -19 0 -25z m53 17 c0 -2 -9 -3 -19 -2 -11 0 -18 5 -15 9 4 6 34 0 34
-7z m-53 -137 c-3 -8 -6 -5 -6 6 -1 11 2 17 5 13 3 -3 4 -12 1 -19z m-894 -42
c4 -10 1 -13 -9 -9 -15 6 -19 23 -5 23 5 0 11 -7 14 -14z m517 10 c0 -2 -8
-10 -17 -17 -16 -13 -17 -12 -4 4 13 16 21 21 21 13z m420 -12 c0 -2 -7 -4
-15 -4 -8 0 -15 4 -15 10 0 5 7 7 15 4 8 -4 15 -8 15 -10z m-1381 -38 c-3 -3
-11 5 -18 17 -13 21 -12 21 5 5 10 -10 16 -20 13 -22z m1386 -76 c3 -5 1 -10
-4 -10 -6 0 -11 5 -11 10 0 6 2 10 4 10 3 0 8 -4 11 -10z m516 -22 c8 -15 8
-18 0 -14 -6 4 -16 16 -22 28 -8 15 -8 18 0 14 6 -4 16 -16 22 -28z m-1806
-58 c-3 -5 -12 -10 -18 -10 -7 0 -6 4 3 10 19 12 23 12 15 0z m566 -13 c-10
-9 -11 -8 -5 6 3 10 9 15 12 12 3 -3 0 -11 -7 -18z m96 -3 c-3 -3 -12 -4 -19
-1 -8 3 -5 6 6 6 11 1 17 -2 13 -5z m98 -84 c-3 -5 -11 -10 -16 -10 -6 0 -7 5
-4 10 3 6 11 10 16 10 6 0 7 -4 4 -10z m-645 -56 c0 -8 -19 -13 -24 -6 -3 5 1
9 9 9 8 0 15 -2 15 -3z m1026 -126 c4 -7 3 -10 -1 -5 -5 4 -17 -1 -28 -10 -19
-18 -19 -17 -6 5 16 25 25 28 35 10z m938 -3 c-4 -8 -11 -15 -16 -15 -6 0 -5
6 2 15 7 8 14 15 16 15 2 0 1 -7 -2 -15z m-683 -33 c-5 -9 -20 -26 -32 -37
-23 -20 -23 -20 -9 0 41 54 59 70 41 37z m-1129 -16 c7 4 8 2 4 -5 -9 -14 -36
3 -36 23 0 6 5 3 11 -7 6 -9 15 -14 21 -11z m-837 -56 c10 -11 16 -20 13 -20
-3 0 -13 9 -23 20 -10 11 -16 20 -13 20 3 0 13 -9 23 -20z m2080 -58 c-3 -3
-11 0 -18 7 -9 10 -8 11 6 5 10 -3 15 -9 12 -12z m655 -19 c-8 -4 -21 -13 -28
-22 -11 -14 -11 -13 -2 7 6 12 18 22 28 21 14 0 14 -2 2 -6z m-470 -37 c-4 -4
-16 -4 -26 2 -16 9 -14 10 8 9 15 -1 23 -6 18 -11z m430 -10 c0 -2 -8 -10 -17
-17 -16 -13 -17 -12 -4 4 13 16 21 21 21 13z m-386 -35 c4 -5 -3 -7 -14 -4
-23 6 -26 13 -6 13 8 0 17 -4 20 -9z m-1164 -5 c0 -2 -6 -9 -14 -15 -11 -9
-16 -9 -22 0 -4 7 -3 9 4 5 6 -3 13 -2 17 4 6 10 15 14 15 6z m1431 -109 c-6
-8 -7 -18 -3 -22 4 -5 1 -5 -6 -1 -10 6 -10 11 -1 22 6 8 14 14 16 14 3 0 0
-6 -6 -13z m1669 -57 c0 -5 -5 -10 -11 -10 -5 0 -7 5 -4 10 3 6 8 10 11 10 2
0 4 -4 4 -10z m-3310 -10 c0 -5 -5 -10 -11 -10 -5 0 -7 5 -4 10 3 6 8 10 11
10 2 0 4 -4 4 -10z m2080 -54 c0 -5 -7 -1 -15 10 -8 10 -14 24 -14 29 0 6 6 1
14 -9 8 -11 15 -24 15 -30z m1550 40 c0 -3 -4 -8 -10 -11 -5 -3 -10 -1 -10 4
0 6 5 11 10 11 6 0 10 -2 10 -4z m-3055 -34 c-3 -3 -11 0 -18 7 -9 10 -8 11 6
5 10 -3 15 -9 12 -12z m-960 -2 c3 -5 -1 -10 -10 -10 -9 0 -13 5 -10 10 3 6 8
10 10 10 2 0 7 -4 10 -10z m1010 -30 c3 -6 -1 -7 -9 -4 -18 7 -21 14 -7 14 6
0 13 -4 16 -10z m-861 -25 c3 -8 1 -15 -4 -15 -6 0 -10 7 -10 15 0 8 2 15 4
15 2 0 6 -7 10 -15z m1044 -25 c-7 -10 -14 -17 -17 -15 -4 4 18 35 25 35 2 0
-1 -9 -8 -20z m2202 6 c0 -2 -7 -7 -16 -10 -8 -3 -12 -2 -9 4 6 10 25 14 25 6z
m-1168 -46 c-42 -26 -56 -26 -17 0 17 11 35 20 40 20 6 0 -5 -9 -23 -20z
m-1772 -25 c0 -8 -4 -15 -10 -15 -5 0 -7 7 -4 15 4 8 8 15 10 15 2 0 4 -7 4
-15z m-55 -15 c3 -5 2 -10 -4 -10 -5 0 -13 5 -16 10 -3 6 -2 10 4 10 5 0 13
-4 16 -10z m2849 -15 c-4 -8 -11 -15 -16 -15 -6 0 -5 6 2 15 7 8 14 15 16 15
2 0 1 -7 -2 -15z m-2616 -30 c-3 -3 -9 2 -12 12 -6 14 -5 15 5 6 7 -7 10 -15
7 -18z m3693 -32 c12 -16 12 -17 -1 -7 -8 6 -22 14 -30 17 -13 5 -12 6 1 6 9
1 23 -7 30 -16z m-3566 -11 c-3 -3 -11 0 -18 7 -9 10 -8 11 6 5 10 -3 15 -9
12 -12z m732 -19 c-3 -10 -5 -4 -5 12 0 17 2 24 5 18 2 -7 2 -21 0 -30z m1112
3 c-3 -3 -11 5 -18 17 -13 21 -12 21 5 5 10 -10 16 -20 13 -22z m481 -36 c-8
-5 -19 -10 -25 -10 -5 0 -3 5 5 10 8 5 20 10 25 10 6 0 3 -5 -5 -10z m-1332
-61 c-3 -8 -7 -3 -11 10 -4 17 -3 21 5 13 5 -5 8 -16 6 -23z m882 -29 c0 -11
-4 -20 -9 -20 -5 0 -7 9 -4 20 3 11 7 20 9 20 2 0 4 -9 4 -20z m-687 -20 c-3
-12 -8 -19 -11 -16 -5 6 5 36 12 36 2 0 2 -9 -1 -20z m994 -13 c0 -7 -9 -13
-19 -13 -18 0 -18 1 -2 13 10 7 18 13 19 13 1 0 2 -6 2 -13z m-2918 -66 c-6
-2 -21 6 -33 19 l-21 21 32 -18 c18 -10 28 -20 22 -22z m114 24 c-3 -9 -8 -14
-10 -11 -3 3 -2 9 2 15 9 16 15 13 8 -4z m2688 -8 c-13 -13 -26 -3 -16 12 3 6
11 8 17 5 6 -4 6 -10 -1 -17z m-1466 -24 c-3 -16 -11 -32 -16 -37 -5 -6 -4 5
1 25 6 18 10 35 10 36 0 2 3 3 6 3 3 0 3 -12 -1 -27z m-1238 -25 c-3 -7 -5 -2
-5 12 0 14 2 19 5 13 2 -7 2 -19 0 -25z m1448 -9 c5 -5 -5 -4 -23 2 -17 6 -32
13 -32 16 0 7 43 -8 55 -18z m65 -29 c0 -5 -2 -10 -4 -10 -3 0 -8 5 -11 10 -3
6 -1 10 4 10 6 0 11 -4 11 -10z m378 -91 c15 -12 20 -19 12 -15 -8 3 -23 9
-32 12 -10 4 -18 10 -18 15 0 14 10 11 38 -12z m-1278 -89 c0 -5 -7 -7 -15 -4
-8 4 -15 8 -15 10 0 2 7 4 15 4 8 0 15 -4 15 -10z m127 -12 c-3 -8 -6 -5 -6 6
-1 11 2 17 5 13 3 -3 4 -12 1 -19z m133 -19 c0 -5 -4 -9 -8 -9 -5 0 -9 7 -9
15 0 8 4 12 9 9 4 -3 8 -9 8 -15z m-246 -4 c-4 -8 -8 -15 -10 -15 -2 0 -4 7
-4 15 0 8 4 15 10 15 5 0 7 -7 4 -15z m369 -6 c-8 -8 -13 -7 -18 2 -5 8 -4 10
3 5 7 -4 12 -2 12 5 0 7 3 9 7 6 4 -4 2 -12 -4 -18z m144 1 c-1 -11 -7 -20
-14 -20 -11 0 -11 4 -1 20 7 11 14 20 15 20 1 0 1 -9 0 -20z m226 -47 c-7 -2
-19 -2 -25 0 -7 3 -2 5 12 5 14 0 19 -2 13 -5z m302 -33 c19 -8 19 -9 -2 -9
-12 -1 -25 4 -28 9 -7 12 2 12 30 0z m505 6 c0 -3 -4 -8 -10 -11 -5 -3 -10 -1
-10 4 0 6 5 11 10 11 6 0 10 -2 10 -4z m-1573 -58 c-3 -8 -6 -5 -6 6 -1 11 2
17 5 13 3 -3 4 -12 1 -19z m1977 -19 c-3 -5 -10 -7 -15 -3 -5 3 -7 10 -3 15 3
5 10 7 15 3 5 -3 7 -10 3 -15z m-1744 -8 c0 -4 -6 -8 -14 -8 -8 0 -12 6 -9 14
5 13 23 9 23 -6z m507 -13 c-3 -8 -6 -5 -6 6 -1 11 2 17 5 13 3 -3 4 -12 1
-19z m-302 -7 c-3 -6 -11 -11 -16 -11 -5 0 -4 6 3 14 14 16 24 13 13 -3z
m-260 -40 c3 -5 0 -13 -6 -17 -7 -4 -9 -3 -5 4 3 6 -2 13 -11 15 -16 4 -16 5
-1 6 9 0 19 -3 23 -8z m343 -8 c-9 -2 -19 -12 -21 -21 -3 -12 -5 -10 -6 6 -1
17 4 22 22 21 15 -1 17 -3 5 -6z m347 -15 c3 -3 -10 -5 -29 -4 -19 0 -37 3
-40 7 -3 3 10 4 29 4 19 -1 37 -4 40 -7z m482 6 c-3 -3 -12 -4 -19 -1 -8 3 -5
6 6 6 11 1 17 -2 13 -5z m-1760 -26 c-3 -8 -6 -5 -6 6 -1 11 2 17 5 13 3 -3 4
-12 1 -19z m296 15 c-7 -2 -19 -2 -25 0 -7 3 -2 5 12 5 14 0 19 -2 13 -5z
m284 -22 c0 -11 -5 -18 -9 -15 -4 3 -5 11 -1 19 7 21 12 19 10 -4z m-999 -76
c-3 -3 -9 2 -12 12 -6 14 -5 15 5 6 7 -7 10 -15 7 -18z m48 -17 c5 4 6 3 2 -2
-4 -5 -3 -15 3 -23 21 -25 3 -13 -22 14 -13 15 -17 22 -8 15 9 -6 20 -8 25 -4z
m173 -146 c-14 -5 -39 6 -39 17 0 5 11 4 25 -2 13 -7 20 -14 14 -15z m1111 8
c0 -5 -5 -10 -11 -10 -5 0 -7 5 -4 10 3 6 8 10 11 10 2 0 4 -4 4 -10z m1240 6
c0 -3 -4 -8 -10 -11 -5 -3 -10 -1 -10 4 0 6 5 11 10 11 6 0 10 -2 10 -4z
m-2195 -46 c7 -12 -2 -12 -30 0 -19 8 -19 9 2 9 12 1 25 -3 28 -9z m89 -49 c4
-5 -3 -7 -14 -4 -23 6 -26 13 -6 13 8 0 17 -4 20 -9z m1291 -22 c-10 -15 -25
-10 -19 6 4 8 10 12 15 9 5 -3 7 -10 4 -15z m-782 -6 c-7 -2 -13 -12 -13 -20
0 -9 -3 -14 -6 -10 -10 10 4 37 18 36 10 0 10 -2 1 -6z m1112 -33 c3 -6 -1 -7
-9 -4 -18 7 -21 14 -7 14 6 0 13 -4 16 -10z m598 -23 c4 3 7 1 7 -5 0 -19 -15
-14 -36 11 -19 22 -19 22 2 4 11 -9 24 -14 27 -10z m-1318 -7 c-3 -5 -14 -10
-23 -10 -15 0 -15 2 -2 10 20 13 33 13 25 0z m-412 -80 c3 -11 1 -20 -4 -20
-5 0 -9 9 -9 20 0 11 2 20 4 20 2 0 6 -9 9 -20z m1167 6 c0 -2 -7 -7 -16 -10
-8 -3 -12 -2 -9 4 6 10 25 14 25 6z m-927 -62 c-7 -3 -9 -13 -6 -22 4 -15 3
-15 -6 -2 -15 22 -14 30 7 29 9 0 12 -3 5 -5z m-419 -36 c-3 -4 -11 -5 -19 -1
-21 7 -19 12 4 10 11 0 18 -5 15 -9z m-779 -48 c3 -5 1 -10 -4 -10 -6 0 -11 5
-11 10 0 6 2 10 4 10 3 0 8 -4 11 -10z m1514 -33 c-2 -1 -13 -9 -24 -17 -19
-14 -19 -14 -6 3 7 9 18 17 24 17 6 0 8 -1 6 -3z m209 -21 c-2 -1 -21 -12 -43
-24 -36 -20 -37 -20 -15 -2 14 11 30 24 35 29 6 5 14 6 18 4 5 -3 7 -6 5 -7z
m-1228 -166 c8 -5 11 -10 5 -10 -5 0 -17 5 -25 10 -8 5 -10 10 -5 10 6 0 17
-5 25 -10z m65 -30 c3 -6 -1 -7 -9 -4 -18 7 -21 14 -7 14 6 0 13 -4 16 -10z
m30 -10 c3 -5 1 -10 -4 -10 -6 0 -11 5 -11 10 0 6 2 10 4 10 3 0 8 -4 11 -10z
m73 3 c-10 -2 -26 -2 -35 0 -10 3 -2 5 17 5 19 0 27 -2 18 -5z m296 -5 c-3 -4
-11 -5 -19 -1 -21 7 -19 12 4 10 11 0 18 -5 15 -9z m303 -44 c-16 -9 -31 -13
-34 -10 -3 3 5 10 18 15 37 15 47 12 16 -5z m-213 -149 c-4 -8 -7 -15 -9 -15
-2 0 -5 7 -9 15 -3 9 0 15 9 15 9 0 12 -6 9 -15z m444 -30 c-3 -3 -9 2 -12 12
-6 14 -5 15 5 6 7 -7 10 -15 7 -18z m-169 -199 c9 -11 9 -16 -1 -22 -7 -4 -10
-4 -6 1 4 4 3 14 -3 22 -6 7 -9 13 -6 13 2 0 10 -6 16 -14z m-141 -217 c-3 -8
-7 -3 -11 10 -4 17 -3 21 5 13 5 -5 8 -16 6 -23z m-274 -45 c3 -8 2 -12 -4 -9
-6 3 -10 10 -10 16 0 14 7 11 14 -7z m131 -122 c-3 -3 -11 0 -18 7 -9 10 -8
11 6 5 10 -3 15 -9 12 -12z m-176 -236 c9 -11 9 -16 -1 -22 -7 -4 -10 -4 -6 1
4 4 3 14 -3 22 -6 7 -9 13 -6 13 2 0 10 -6 16 -14z"/>
</g>
</svg>
