<svg width="300" height="305" xmlns="http://www.w3.org/2000/svg" xml:space="preserve" enable-background="new 0 0 300 305" version="1.1">

 <g>
  <title>Layer 1</title>
  <path id="svg_2" d="m44.81167,139.07373c-9.75382,-12.2936 -15.07392,-26.69198 -19.64431,-41.44079c-0.6567,-2.1192 -1.161,-4.28562 -1.89377,-7.01939c1.20832,0.57957 1.89341,0.90818 2.77267,1.85709c0.47713,0.92723 0.7601,1.23416 1.04306,1.54109c0,0 -0.08163,-0.02523 -0.05368,0.29201c1.971,3.11661 3.91405,5.91597 6.0176,9.01239c6.16812,7.33932 13.02889,13.28118 21.88348,17.20124c2.09956,1.06614 3.96292,1.88708 6.09105,2.94042c2.49134,1.0374 4.7179,1.8424 7.19356,2.87102c1.7421,0.71903 3.2351,1.21444 4.75576,1.92934c0.02766,0.2195 0.06829,0.66011 0.05051,1.06955c-2.02092,6.83391 -4.02409,13.25841 -6.36276,19.62109c-1.77835,-0.69317 -3.22121,-1.32457 -4.83972,-2.23984c-5.29935,-3.85414 -8.92565,-10.85406 -17.01345,-7.63522z" fill="#AA14FC"/>
  <path id="svg_3" d="m195.09369,192.22328c-0.0809,0.83661 -0.16179,1.67322 -0.78693,2.43099c-1.13667,-2.79195 -1.62567,-5.53266 -2.34048,-8.21314c-2.3813,-8.92947 -4.8602,-17.82922 -12.02634,-24.79201c-4.19122,-5.91792 -9.05588,-10.55636 -15.9843,-12.99882c-2.05401,-1.75974 -4.00598,-3.20128 -5.89714,-4.98154c4.94556,-5.80296 8.70879,-12.42631 16.11328,-15.45688c1.0421,0.53681 1.79236,0.9426 2.64942,1.64313c3.73373,5.28815 7.36064,10.28157 11.04387,15.64351c2.11752,7.75153 4.17872,15.13454 6.21666,22.94676c0.28172,6.47623 0.5867,12.52327 0.89492,19.0025c0.04119,1.87996 0.07911,3.32773 0.11704,4.7755z" fill="#FE2590"/>
  <path id="svg_4" d="m68.71593,110.11394c-11.62176,-11.13777 -17.95276,-25.23557 -22.30904,-40.35714c-5.08892,-17.66466 -6.18953,-35.82369 -6.17305,-54.08989c0.00038,-0.4153 0.27514,-0.83036 0.71496,-2.07448c0.50656,1.35305 0.73555,1.9647 0.78212,3.22752c0.34561,4.44643 0.87364,8.2417 1.36201,12.46683c3.27914,13.18906 6.59793,25.94826 9.97011,39.05883c1.33706,2.79117 2.62073,5.23095 3.96452,8.01621c1.36563,2.77508 2.67112,5.20469 4.13883,7.92664c2.04996,2.76703 3.93771,5.24174 5.99207,8.00413c2.72473,3.09378 5.28283,5.89987 7.84192,8.95655c0.00189,0.41765 0.00279,0.58471 -0.16501,1.044c-2.15229,2.80175 -4.13586,5.31128 -6.11944,7.8208z" fill="#EE876B"/>
  <path id="svg_5" d="m192.82373,197.35248c-0.86832,1.11445 -1.5643,2.44031 -2.63168,3.31061c-10.38738,8.46948 -20.83692,16.86267 -31.86003,25.17245c-5.19396,-4.35475 -9.79664,-8.60435 -14.25152,-13.06232c0.40148,-0.43374 0.65517,-0.65912 1.21106,-1.03c13.41678,-8.14099 26.63215,-15.84428 43.13727,-14.8131c0.65451,0.04731 1.02799,0.08149 1.70041,0.33331c1.00629,0.37623 1.71366,0.5348 2.41612,0.50914c-0.00488,-0.18424 0.27839,-0.42009 0.27837,-0.42009z" fill="#1563DD"/>
  <path id="svg_6" d="m36.03978,161.9588c-1.45463,-2.07538 -2.90926,-4.15077 -4.36388,-6.22615c0.23335,-0.38249 0.46671,-0.76498 0.70007,-1.14746c13.14367,8.14737 27.62114,10.53892 43.27112,11.11868c3.55068,1.58379 6.43749,2.78433 9.73273,4.10375c7.20677,1.07548 14.00514,2.03212 20.73529,3.26623c-0.09621,0.46594 -0.12423,0.65438 -0.61448,0.85012c-5.13223,0.08732 -9.80222,0.16732 -14.9374,0.21507c-4.82593,-0.03778 -9.18667,-0.04331 -13.98873,-0.07553c-5.81844,-0.71495 -11.19556,-1.4032 -16.8393,-2.32148c-6.69931,-3.46077 -13.11917,-6.7178 -19.58696,-9.87667c-0.57056,-0.27868 -1.45434,0.08397 -2.51137,0.10931c-0.74485,-0.03157 -1.17097,-0.02371 -1.59709,-0.01587z" fill="#3CB5F8"/>
  <path id="svg_7" d="m210.24539,170.09154c-0.10293,0.50428 -0.20587,1.00857 -0.64996,1.87935c-0.34114,0.36648 -0.61966,0.74038 -0.61966,0.74038c-4.07027,6.11228 -8.14055,12.22455 -12.57059,18.02852c-0.39267,-1.5119 -0.42561,-2.71553 -0.45773,-4.11322c0.00082,-0.19408 0.01897,-0.58578 0.26336,-0.88409c0.75803,-3.52539 1.63834,-6.74387 1.71424,-9.9812c0.20103,-8.57477 0.05415,-17.15772 0.36996,-25.79654c1.45328,-1.01651 2.58231,-1.97387 4.01139,-3.08348c2.09846,-1.0811 3.89686,-2.00997 5.76579,-2.53205c0.34726,2.50893 0.90631,4.61948 0.8441,6.71155c-0.1458,4.90296 -0.77669,9.79631 -0.79616,14.69521c-0.00573,1.44235 1.37819,2.89022 2.12526,4.33557z" fill="#FC268F"/>
  <path id="svg_8" d="m189.83031,197.04578c-0.37349,-0.03417 -0.74697,-0.06835 -1.70946,-0.34836c-4.32127,-0.4668 -8.15819,-1.33595 -11.76085,-0.75427c-5.1935,0.83853 -10.21687,2.73074 -15.38489,3.78752c-0.36346,-2.15915 -0.65487,-3.9325 -0.95527,-5.97733c-10.35437,1.5363 -20.69971,3.34407 -31.44104,5.18218c-4.8675,1.29797 -9.33904,2.56564 -14.24002,3.86871c-4.40667,0.46028 -8.3839,0.88516 -12.79797,1.27547c-2.48826,-0.00493 -4.53968,0.0247 -7.01867,0.01686c-4.1812,-1.02106 -7.93486,-2.00464 -11.68851,-2.98822c0.0272,-0.17662 0.0544,-0.35323 0.63243,-0.79044c2.20179,-0.22708 3.85273,-0.1936 5.84511,0.06537c4.79606,0.29799 9.2507,0.37048 14.12116,0.47287c7.19103,-1.52647 13.96624,-3.08284 21.17054,-4.64633c6.40946,-1.13072 12.38985,-2.25433 18.78261,-3.35939c3.68378,-0.47461 6.94171,-1.25637 10.22896,-1.40962c12.36562,-0.57645 24.92313,-2.39089 36.32552,4.80954c-0.06058,0.44194 -0.08512,0.61868 -0.10965,0.79544z" fill="#2F9592"/>
  <path id="svg_9" d="m43.13259,28.85692c-0.52803,-3.79527 -1.05606,-7.59054 -1.38304,-11.66332c1.1213,0.99263 2.30227,2.14787 2.92066,3.55105c5.06936,11.50279 13.66861,20.23273 22.49851,28.76819c1.25225,1.2105 2.9932,1.91545 4.61046,3.49979c-2.22258,3.16941 -4.54769,5.69342 -7.17634,8.15614c-0.71354,-0.11152 -1.12356,-0.16175 -1.7052,-0.50027c-7.60108,-8.79363 -13.59485,-18.16091 -17.5098,-28.81426c-0.41292,-1.12362 -1.48759,-2.00406 -2.25525,-2.99732z" fill="#F7DE7E"/>
  <path id="svg_10" d="m106.28096,72.86726c3.52862,1.50777 7.05724,3.01555 11.14801,4.8112c2.27291,1.14731 3.98367,2.00676 5.65953,3.26161c-2.09859,6.43025 -6.78499,9.74392 -12.62753,12.18008c-1.01512,-0.08444 -1.69329,-0.14133 -2.61349,-0.43835c-2.74773,-1.44453 -5.25344,-2.6489 -7.95228,-4.11104c-1.7614,-1.34752 -3.32968,-2.43726 -4.73517,-3.81929c3.8155,-4.15626 7.46821,-8.02024 11.12093,-11.88421z" fill="#FCBC83"/>
  <path id="svg_11" d="m106.04355,72.57376c-3.41531,4.15747 -7.06802,8.02145 -11.20137,12.04437c-1.57133,-0.17846 -2.662,-0.51587 -3.94344,-1.11215c-2.40607,-1.68796 -4.62136,-3.11706 -7.02119,-4.81515c-1.78468,-1.72367 -3.38482,-3.17833 -4.7273,-4.85253c3.46857,-3.47043 6.67947,-6.72135 9.89037,-9.97227c5.58851,2.80475 11.17702,5.6095 17.00293,8.70773z" fill="#FCC882"/>
  <path id="svg_12" d="m148.11469,55.75812c1.9752,2.71196 4.02981,5.37024 5.90809,8.14774c3.29157,4.86739 6.47499,9.80789 9.77524,15.40662c-2.85132,2.01281 -5.77415,3.33676 -8.87996,4.40751c-1.05162,-1.13824 -1.92026,-2.02327 -2.86655,-3.24196c-1.68701,-2.74331 -3.29637,-5.15296 -4.99307,-7.90296c-1.39995,-2.75796 -2.71258,-5.17558 -4.08871,-7.93994c-0.69266,-2.11369 -1.32183,-3.88062 -1.59134,-5.70622c2.48518,-1.09604 4.61073,-2.13342 6.7363,-3.17079z" fill="#A6E697"/>
  <path id="svg_13" d="m148.11556,55.3822c-2.12644,1.41329 -4.25199,2.45067 -6.88302,3.28011c-1.07725,-1.02772 -1.64903,-1.84751 -2.23819,-3.04887c-1.01625,-3.45538 -2.01513,-6.52919 -3.00027,-10.04201c-0.33139,-7.46268 -0.62488,-14.48959 -1.06561,-21.50727c-0.08712,-1.38719 -0.74048,-2.73884 -1.1026,-4.35016c0.03012,-0.24329 0.13353,-0.72255 0.40667,-0.95874c1.0779,-2.91536 1.88266,-5.59455 2.68743,-8.27373c0.43074,-1.02509 0.86149,-2.05018 1.29225,-3.07528c-2.73607,17.19266 3.7417,32.36424 9.90334,47.97595z" fill="#B5E38E"/>
  <path id="svg_14" d="m88.91096,63.61351c-3.08124,3.50344 -6.29214,6.75436 -10.04049,10.08605c-1.65117,-0.51137 -2.7649,-1.10352 -4.04897,-1.97421c-2.04187,-1.76839 -3.91338,-3.25824 -5.9539,-5.03016c-1.43308,-2.00975 -2.69714,-3.73743 -3.96121,-5.46512c2.3251,-2.52402 4.65021,-5.04803 7.03688,-7.91254c0.34653,-0.23347 0.63148,-0.12646 1.22125,0.29571c0.30482,0.31515 0.33911,0.40294 0.33911,0.40294c5.09255,3.11494 10.18511,6.22988 15.40733,9.59733z" fill="#FBD480"/>
  <path id="svg_15" d="m143.93271,212.98158c4.60267,4.24961 9.20535,8.49921 14.08755,12.96334c-2.7236,2.85803 -5.72671,5.50157 -9.37664,8.0849c-4.31501,-3.72097 -7.9832,-7.38172 -11.50356,-11.35018c1.38139,-2.77954 2.61495,-5.25137 3.86044,-7.70183c0.01194,0.02137 -0.03688,0.02512 0.16497,-0.10127c0.45501,-0.32478 0.65893,-0.565 1.05462,-0.98547c0.73156,-0.39545 1.22208,-0.65247 1.71262,-0.90949z" fill="#166DE1"/>
  <path id="svg_16" d="m77.3878,164.28638c-2.94175,-1.3064 -5.8835,-2.6128 -9.08849,-4.50453c1.06141,-2.65725 2.38607,-4.72913 4.04178,-6.79834c0.77266,0.00398 1.21425,0.0053 1.9388,0.23731c3.49018,1.55356 5.20464,0.2302 6.12021,-2.88464c1.10982,-3.77568 2.67736,-7.4415 3.48271,-11.27342c0.54312,-2.58427 0.11051,-5.37363 0.11363,-8.47473c0.00432,-1.47948 0.0094,-2.55545 0.359,-3.55837c3.14529,2.02164 5.94607,3.97023 8.3919,5.99678c-1.82025,2.71405 -3.49494,5.25789 -4.70551,8.00617c-2.24623,5.09946 -4.15501,10.34654 -6.33732,15.47557c-1.10335,2.59314 -2.49736,5.06261 -3.90951,7.60516c-0.14957,0.01718 -0.4072,0.17304 -0.4072,0.17304z" fill="#B639F5"/>
  <path id="svg_17" d="m210.53485,169.9353c-1.03653,-1.28911 -2.42045,-2.73698 -2.41472,-4.17933c0.01947,-4.8989 0.65036,-9.79225 0.79616,-14.69521c0.06221,-2.09207 -0.49684,-4.20262 -0.69145,-6.97919c0.98294,-1.80638 1.88376,-2.93834 3.06418,-4.23312c1.41494,-0.73409 2.55031,-1.30539 3.9329,-1.54129c0.42459,5.70415 0.44713,11.08488 0.86145,16.43529c0.1492,1.92674 1.24021,3.78058 1.90143,5.66768c-2.38682,3.12297 -4.77365,6.24595 -7.44995,9.52517z" fill="#FC348D"/>
  <path id="svg_18" d="m88.09293,291.48596c-2.63431,2.67707 -5.26862,5.35416 -7.90293,8.03122c-0.22768,-0.25415 -0.45537,-0.5083 -0.68305,-0.76242c2.53017,-7.01382 5.06034,-14.02762 8.06781,-21.26562c2.79286,-3.97916 5.10842,-7.73417 7.59265,-11.19947c1.39366,2.43372 2.61865,4.57773 3.77897,7.06259c-1.97784,3.19605 -3.99589,5.98774 -5.77502,8.92417c-1.81507,2.99576 -3.39535,6.13379 -5.07843,9.20953z" fill="#12B4F1"/>
  <path id="svg_19" d="m218.24268,160.258c-0.9191,-1.73497 -2.01011,-3.58881 -2.15931,-5.51555c-0.41432,-5.35041 -0.43686,-10.73114 -0.69339,-16.71532c1.48429,-2.08595 3.04776,-3.55647 4.90171,-5.16057c1.09602,-0.39929 1.90158,-0.66501 2.78012,-0.51536c0.40694,7.30801 0.74089,14.20066 1.07483,21.09329c-1.88205,2.22046 -3.76409,4.4409 -5.90396,6.81351z" fill="#FC428C"/>
  <path id="svg_20" d="m136.99222,222.98734c3.6682,3.66076 7.33639,7.32151 11.35324,11.15834c-3.02605,3.27259 -6.40073,6.36911 -10.14313,9.25773c-1.48546,-1.58999 -2.63428,-2.94835 -3.7135,-4.35992c-1.52859,-1.99928 -3.00584,-4.03781 -4.49863,-6.38803c0.01699,-0.76658 0.02758,-1.20467 0.32505,-1.81467c2.41691,-2.73241 4.54693,-5.29292 6.67697,-7.85345z" fill="#1777E4"/>
  <path id="svg_21" d="m129.98379,232.98392c1.4992,2.02176 2.97645,4.06029 4.50504,6.05957c1.07922,1.41157 2.22804,2.76993 3.40701,4.48121c-3.73137,3.92356 -7.52395,7.51793 -11.62577,10.85533c-1.96448,-3.3001 -3.61973,-6.34323 -5.1416,-9.67431c0.38489,-1.0892 0.63638,-1.89049 1.17664,-2.86334c2.75206,-3.06722 5.21537,-5.96285 7.67868,-8.85846z" fill="#1A81E7"/>
  <path id="svg_22" d="m249.05449,139.02843c-3.45123,1.16458 -6.90245,2.32914 -10.70087,3.11345c-0.68406,-6.63073 -1.02093,-12.8812 -1.35576,-19.38018c0.00206,-0.2485 0.00397,-0.74527 0.37632,-0.81413c3.11943,-0.68483 5.86653,-1.30082 8.69345,-1.50894c0.29741,5.42822 0.39219,10.45929 0.82858,15.46054c0.09576,1.0975 1.40685,2.08896 2.15828,3.12926z" fill="#FC6B89"/>
  <path id="svg_23" d="m155.10103,83.97318c2.92284,-1.32394 5.84567,-2.64789 8.78975,-4.31836c2.96606,3.79701 5.91087,7.94053 8.99217,12.49061c0.13647,0.40656 0.2832,0.62806 0.2832,0.62806c0.19713,0.16592 0.39424,0.33185 0.6352,1.21681c-2.59151,1.82386 -5.22683,2.92869 -8.13195,3.84284c-3.70266,-4.74711 -7.13551,-9.30354 -10.56837,-13.85996z" fill="#99E198"/>
  <path id="svg_24" d="m165.93919,98.02383c2.63533,-1.10484 5.27065,-2.20967 7.98378,-3.66668c3.10053,4.50651 6.10874,9.37433 9.15535,14.21801c0.84475,1.34301 1.80347,2.61433 2.67522,4.5694c-1.95903,0.98335 -3.88338,1.31584 -6.0034,1.68276c-0.1957,0.03441 -0.59015,0.08255 -0.63545,0.07283c-0.04529,-0.00973 -0.09914,-0.08513 -0.19809,-0.25689c-0.26334,-0.38629 -0.46906,-0.5484 -0.77202,-0.69505c-0.05593,-0.03698 -0.12873,-0.14957 -0.22899,-0.3184c-0.26537,-0.37945 -0.47051,-0.53843 -0.77143,-0.68199c-0.05575,-0.03621 -0.12808,-0.14779 -0.22937,-0.31739c-0.26798,-0.38118 -0.47505,-0.54027 -0.77667,-0.68082c-0.05421,-0.03398 -0.12347,-0.14157 -0.23077,-0.3158c-0.28432,-0.39138 -0.50421,-0.54863 -0.79956,-0.66388c-0.03259,-0.01792 -0.04453,-0.09134 -0.04743,-0.40906c-0.59227,-1.0782 -1.18164,-1.83869 -1.9711,-2.79595c-0.52256,-0.3783 -0.84503,-0.5598 -1.13407,-0.74237c0.03341,-0.00107 0.00332,0.05864 -0.03202,-0.28734c-2.02418,-2.78997 -4.01303,-5.23396 -5.99571,-7.93627c0.00801,-0.4306 0.00987,-0.60286 0.01173,-0.77511z" fill="#8DDE9A"/>
  <path id="svg_25" d="m54.70053,120.27217c-8.6184,-3.67486 -15.47917,-9.61672 -21.54389,-17.25887c0.59934,-1.08126 1.25578,-1.56262 1.91222,-2.04397c0,0 0.48257,0.12809 0.64504,0.57946c0.53632,0.78476 0.91017,1.11815 1.28403,1.45153c6.54408,3.04847 13.08816,6.09694 19.83394,9.80429c-0.57598,2.92844 -1.35366,5.198 -2.13134,7.46756z" fill="#C897E0"/>
  <path id="svg_26" d="m193.05899,197.19547c-0.23524,0.15701 -0.51851,0.39286 -0.54016,0.21581c-0.25148,-0.59844 -0.48129,-1.01985 -0.7144,-1.73063c-0.23329,-1.02605 -0.4633,-1.7627 -0.7271,-2.89473c-3.11655,-10.269 -8.9272,-18.3914 -16.14238,-25.88025c0.08827,-0.50816 0.12017,-0.712 0.47475,-0.97476c1.74591,-1.35426 3.1691,-2.64963 4.5923,-3.94498c7.10408,6.62598 9.58298,15.52573 11.96428,24.4552c0.71481,2.68048 1.20381,5.42119 2.09289,8.41124c-0.05723,0.9133 -0.41108,1.54968 -1.00018,2.3431z" fill="#DA2197"/>
  <path id="svg_27" d="m144.0805,212.77322c-0.63833,0.46538 -1.12885,0.7224 -2.06368,1.24128c-0.70493,0.45571 -0.9079,0.6979 -1.0532,0.98843c0,0 0.04882,-0.00375 -0.30716,0.04346c-5.46885,2.98048 -10.58175,5.91377 -16.05817,8.92773c-4.53214,1.63162 -8.70077,3.18256 -13.23928,4.77164c-1.36805,0.11827 -2.36621,0.19839 -3.74429,0.26773c-1.39278,0.02301 -2.40563,0.05679 -3.41848,0.09057c-1.14779,-0.73487 -2.22914,-1.93666 -3.45662,-2.11129c-2.90705,-0.41359 -5.8835,-0.33953 -8.75601,-0.69873c3.72292,-0.31604 7.36994,-0.39598 11.44165,-0.43033c5.1259,-1.00699 9.82711,-2.05959 14.86884,-3.19547c7.81296,-4.23408 15.28538,-8.38488 23.06119,-12.59701c1.73251,-0.5595 3.16166,-1.05768 4.49643,-1.21579c-0.35038,1.23782 -0.60637,2.13556 -0.86237,3.03331c-0.25368,0.22535 -0.50737,0.45073 -0.90885,0.88447z" fill="#1E6CA6"/>
  <path id="svg_28" d="m224.45627,153.28983c-0.64357,-6.73797 -0.97752,-13.63062 -1.22046,-21.2147c1.65228,-2.14149 3.21353,-3.59156 5.10614,-5.05317c0.77331,-0.02645 1.21526,-0.04136 1.7309,0.35457c0.2494,4.63212 0.2568,8.87028 0.6771,13.06709c0.18937,1.89069 1.20229,3.69888 1.84154,5.54451c-2.60853,2.38234 -5.21707,4.76468 -8.13522,7.3017z" fill="#FC4F8B"/>
  <path id="svg_29" d="m36.05031,162.31186c0.41559,-0.3609 0.84171,-0.36876 1.73314,-0.03091c7.0328,6.51043 13.60027,12.67515 20.35904,19.11283c2.74822,2.03812 5.30516,3.80326 7.7071,5.93105c-0.42446,1.92 -0.69394,3.47736 -0.96343,5.03471c-12.68254,-6.9141 -21.27467,-17.79887 -28.83585,-30.04768z" fill="#2F80CB"/>
  <path id="svg_30" d="m232.8363,145.72617c-0.88406,-1.58367 -1.89698,-3.39186 -2.08635,-5.28255c-0.4203,-4.19681 -0.4277,-8.43497 -0.49804,-13.35016c2.31822,-1.82369 4.53105,-2.95348 6.74389,-4.08325c0.33689,6.25047 0.67376,12.50094 1.01262,19.19691c-1.64113,1.38271 -3.28422,2.3199 -5.17212,3.51905z" fill="#FD5C8B"/>
  <path id="svg_31" d="m68.86156,110.42406c1.83795,-2.81964 3.82152,-5.32917 6.279,-7.98569c2.93218,1.42411 5.39048,2.99522 7.99662,4.82918c0.7206,1.08642 1.29335,1.91002 1.61822,2.95823c-1.75724,3.74748 -3.26657,7.27033 -5.04183,10.70182c-0.74982,-0.3549 -1.23372,-0.61843 -1.73214,-0.94774c-0.01452,-0.06578 -0.06016,-0.19256 -0.06016,-0.19256c-2.97136,-3.01771 -5.94272,-6.03542 -9.05971,-9.36324z" fill="#F28070"/>
  <path id="svg_32" d="m260.94791,140.18166c-2.07123,-0.30437 -4.14246,-0.60874 -6.57517,-1.52923c-0.36839,-6.9569 -0.37532,-13.2977 -0.02084,-19.58566c2.45495,0.68098 4.54846,1.30912 6.71661,2.33635c0.00955,6.52557 -0.05554,12.65206 -0.1206,18.77854z" fill="#FA8D87"/>
  <path id="svg_33" d="m261.22125,140.41296c-0.20828,-6.35778 -0.14319,-12.48427 0.22162,-18.93629c2.55731,0.24852 4.81488,0.82257 7.07242,1.39662c0.41589,0.26673 0.83182,0.53345 1.32309,1.44103c-0.8414,6.30189 -1.75824,11.9629 -2.67505,17.62393c-1.88959,-0.43132 -3.77917,-0.86264 -5.94208,-1.52529z" fill="#FC9586"/>
  <path id="svg_34" d="m253.99049,119.01393c0.00693,6.3408 0.01386,12.6816 0.02602,19.48888c-1.3766,0.52961 -2.75842,0.59277 -4.55113,0.59076c-1.16232,-1.10544 -2.47341,-2.0969 -2.56917,-3.1944c-0.43639,-5.00125 -0.53117,-10.03232 -0.82364,-15.71086c-0.0735,-0.82486 -0.07213,-0.99152 0.36646,-1.16556c2.47782,-0.01301 4.51849,-0.01865 6.80722,-0.02085c0.24809,0.00342 0.74424,0.01203 0.74424,0.01203z" fill="#FE7B89"/>
  <path id="svg_35" d="m211.00943,140.01126c-0.90083,1.13197 -1.80165,2.26393 -2.85513,3.66354c-1.95104,1.19649 -3.74944,2.12536 -6.00321,2.84247c-0.34176,-5.48446 -0.22816,-10.75715 -0.11458,-16.02986c0.16733,-0.11955 0.33466,-0.23912 0.95333,-0.46796c0.64221,-0.20921 0.80352,-0.34439 0.93532,-0.51481c1.80896,-1.01886 3.61792,-2.03772 5.75958,-2.67089c0.66337,4.64965 0.99403,8.91358 1.32469,13.17751z" fill="#FC4F8B"/>
  <path id="svg_36" d="m120.99508,244.99367c1.65526,3.04313 3.31051,6.08626 4.96487,9.50024c-2.03138,2.37581 -4.06186,4.38078 -6.74292,6.43254c-2.50988,-1.60812 -4.36919,-3.263 -6.17395,-5.23837c0.69001,-1.44258 1.32547,-2.5647 2.20457,-3.90677c2.07823,-2.40918 3.91283,-4.59842 5.74743,-6.78764z" fill="#1C8DEE"/>
  <path id="svg_37" d="m211.28903,139.84847c-0.61026,-4.10114 -0.94092,-8.36507 -1.26678,-13.05576c2.74508,-1.9063 5.48535,-3.38586 8.59338,-4.47159c1.61923,3.73194 -2.81387,7.63263 1.38559,10.67902c-1.56348,1.47052 -3.12695,2.94104 -4.85849,4.6916c-1.3034,0.85132 -2.43877,1.42262 -3.8537,2.15673z" fill="#FD5C8B"/>
  <path id="svg_38" d="m83.98698,224.72479c-11.11954,-2.57454 -20.34019,-8.65286 -29.09129,-16.12666c-0.07053,-0.3989 0.17057,-0.6606 0.51531,-0.57662c10.09378,4.05112 19.8428,8.01822 29.58046,12.33344c-0.34242,1.68871 -0.67345,3.02927 -1.00448,4.36984z" fill="#6ACC9A"/>
  <path id="svg_39" d="m52.39478,201.79269c0.65288,0.09278 1.30576,0.18555 2.35214,0.53974c0.68209,0.21719 0.97069,0.17299 1.25928,0.12878c0.43121,0.02626 0.86242,0.05251 1.69626,0.41522c1.03277,0.29435 1.66291,0.25225 2.29305,0.21015c3.37294,-0.02104 6.74588,-0.04208 10.7323,0.16028c1.15793,0.09935 1.7024,-0.02471 2.24688,-0.14876c0.75428,-0.02301 1.50856,-0.04602 2.65981,0.36387c0.71032,2.12931 1.02366,3.82573 0.88477,5.52241c-5.53379,-0.59817 -10.61105,-1.23708 -15.69907,-1.77417c-1.91907,-0.20257 -3.86301,-0.1695 -6.04775,-0.4639c-1.11754,-0.38094 -1.98293,-0.54186 -2.84832,-0.70276c0,-0.00002 0.0646,-0.02907 -0.05227,-0.23807c-0.42184,-0.38507 -0.72682,-0.56116 -1.0318,-0.73724c0,0 0.08666,-0.01337 0.12213,-0.25994c0.03901,-0.4413 0.04255,-0.63601 -0.03664,-1.08696c0.4346,-0.81372 0.95191,-1.37118 1.46923,-1.92865z" fill="#A6E697"/>
  <path id="svg_40" d="m44.92399,139.39767c7.97548,-3.54278 11.60178,3.45714 16.74715,7.63379c-1.48626,2.24126 -2.9942,3.87613 -4.50214,5.511c-4.04423,-4.27362 -8.08846,-8.54722 -12.24501,-13.14479z" fill="#AE1EF8"/>
  <path id="svg_41" d="m267.43555,142.15034c0.64459,-5.87312 1.56143,-11.53413 2.49963,-17.60186c1.93082,1.35314 3.84024,3.11299 5.89404,5.48127c0.16065,1.02596 0.17685,1.4435 0.0719,1.99559c-0.02978,0.44376 0.06156,0.75296 0.17896,1.25893c0.02606,0.19678 0.0805,0.59 -0.18115,0.90477c-0.46631,3.59662 -0.67093,6.87845 -0.87558,10.16029c-2.43851,-0.6623 -4.87705,-1.3246 -7.5878,-2.19899z" fill="#F79F83"/>
  <path id="svg_42" d="m112.98853,256.00855c1.85931,1.6549 3.71862,3.30978 5.92639,5.04003c-3.88739,4.22541 -8.12326,8.37549 -12.67617,12.30677c-0.95365,-1.93384 -1.59025,-3.64887 -2.16431,-5.69971c1.35871,-2.44223 2.65488,-4.54858 4.22636,-6.82459c1.74611,-1.72061 3.21692,-3.27154 4.68773,-4.8225z" fill="#1E93E4"/>
  <path id="svg_43" d="m94.99875,266c-2.31557,3.75497 -4.63113,7.50998 -7.18083,11.18988c2.61179,-9.32974 5.45773,-18.58441 8.93129,-28.00748c1.85061,0.49137 3.0736,1.15117 4.28299,2.18476c-0.03582,1.12007 -0.05803,1.86636 -0.36769,2.81057c-2.08021,4.0727 -3.87298,7.94748 -5.66576,11.82227z" fill="#0DC1F6"/>
  <path id="svg_44" d="m197.97076,150.02388c0.00844,8.57968 0.15532,17.16263 -0.04571,25.7374c-0.0759,3.23733 -0.95621,6.45581 -1.71082,9.52912c-0.14508,-5.17849 -0.04919,-10.20326 0.03684,-15.69894c-1.09311,-9.17567 -2.17635,-17.88043 -3.29557,-26.95286c-0.76271,-2.49404 -1.48944,-4.62038 -1.88418,-6.83339c1.30432,-0.64421 2.27667,-1.20176 3.24901,-1.75928c0,0 0.36216,-0.04691 0.52762,0.46179c1.15124,5.51119 2.13703,10.51367 3.12281,15.51616z" fill="#E3298E"/>
  <path id="svg_45" d="m84.35371,224.8808c-0.0357,-1.49658 0.29533,-2.83714 0.96862,-4.53104c0.78337,-0.36015 1.22446,-0.36697 2.13307,-0.36291c5.48885,-0.00691 10.51021,-0.02472 15.53622,-0.02655c0.00466,0.01599 0.01052,0.04876 0.00998,0.46509c-0.00069,2.07513 -0.00086,3.73393 -0.00103,5.39273c-3.64702,0.07994 -7.29404,0.15988 -11.36826,0.30203c-2.58875,-0.31964 -4.75031,-0.70149 -7.2786,-1.23935z" fill="#5FC79B"/>
  <path id="svg_46" d="m220.29169,132.86656c-4.48993,-2.91281 -0.05683,-6.8135 -1.31618,-10.58523c2.75565,-1.79349 5.51915,-3.15338 8.65504,-3.99714c0.37494,3.26053 0.37749,6.00491 0.38005,8.7493c-1.56126,1.45008 -3.12251,2.90015 -4.84777,4.62628c-0.96956,0.54178 -1.77512,0.8075 -2.87114,1.20679z" fill="#FC6B89"/>
  <path id="svg_47" d="m275.36926,144.56381c-0.14126,-3.49632 0.06336,-6.77815 0.85355,-10.29284c3.88489,2.47947 7.36545,5.01309 10.34793,8.03779c0.69049,0.70026 -0.32034,3.07808 -0.54834,4.68398c-3.43576,-0.73815 -6.87149,-1.47629 -10.65314,-2.42893z" fill="#FBB085"/>
  <path id="svg_48" d="m198.29501,149.96474c-1.31003,-4.94335 -2.29582,-9.94583 -3.28766,-15.36794c2.12769,-1.60028 4.26143,-2.78093 6.71216,-4.03549c0.20342,5.19881 0.08982,10.4715 0.13153,16.1082c-0.97372,1.32136 -2.10275,2.27872 -3.55603,3.29523z" fill="#FC428C"/>
  <path id="svg_49" d="m104.01189,267.99145c0.63661,1.71503 1.27321,3.43006 1.92451,5.49256c-5.72851,6.11969 -11.47174,11.89187 -17.52922,17.83301c1.36883,-2.9068 2.94911,-6.04483 4.76418,-9.04059c1.77913,-2.93643 3.79718,-5.72812 6.05723,-9.09003c1.82568,-2.06946 3.30449,-3.6322 4.7833,-5.19495z" fill="#25A2F5"/>
  <path id="svg_50" d="m65.09013,192.62174c0.06552,-1.81955 0.335,-3.37691 1.13518,-5.26529c2.92047,0.37257 5.31022,1.07614 7.94667,1.9859c1.43994,0.70959 2.63317,1.21302 3.81167,2.07501c-0.00613,2.43826 0.00246,4.518 0.01106,6.59773c-4.23353,-1.71039 -8.46708,-3.42078 -12.90458,-5.39335z" fill="#2B78C8"/>
  <path id="svg_51" d="m57.3769,152.81699c1.30004,-1.9094 2.80798,-3.54427 4.4699,-5.50165c1.59683,0.30888 3.03969,0.94028 4.98869,1.91011c2.06229,1.47742 3.61842,2.61641 5.17455,3.75539c-1.32466,2.07188 -2.64932,4.14376 -3.98821,6.5731c-3.48849,-1.91585 -6.96276,-4.18913 -10.64493,-6.73695z" fill="#B32DF6"/>
  <path id="svg_52" d="m76.97151,208.9841c-0.31335,-1.6964 -0.62669,-3.39282 -0.96466,-5.45941c2.0288,-1.01631 4.08222,-1.66243 6.48122,-2.36246c4.09921,0.92969 7.85287,1.91327 11.93361,3.25296c-2.25529,1.43473 -4.83767,2.51334 -7.83663,3.59445c-3.48222,0.32648 -6.54788,0.65047 -9.61354,0.97446z" fill="#8DDE9A"/>
  <path id="svg_53" d="m117.94455,74.00254c0.00498,-4.39426 0.00996,-8.78851 0.469,-13.66707c2.13262,-0.75507 3.81118,-1.02583 5.51104,-0.87322c0.06072,2.12341 0.10015,3.82344 0.12372,5.95897c0.01239,2.45837 0.04063,4.48126 -0.29977,6.54191c-2.18043,0.70498 -3.99221,1.3722 -5.80399,2.03941z" fill="#44B598"/>
  <path id="svg_54" d="m78.29196,198.20898c-0.30585,-2.27362 -0.31444,-4.35336 0.09149,-6.7371c4.15178,0.32558 7.88904,0.95517 11.6032,1.9752c-0.35438,2.49723 -0.68565,4.60396 -1.01691,6.7107c-1.65095,-0.03348 -3.30189,-0.06696 -5.3612,-0.06693c-1.94536,-0.5403 -3.48234,-1.11415 -5.31658,-1.88187z" fill="#2773CC"/>
  <path id="svg_55" d="m123.9033,59.03888c-1.67857,0.27076 -3.35713,0.54152 -5.39386,0.87945c0.78967,-5.38843 1.9375,-10.84404 3.68696,-16.60763c1.63687,-0.30208 2.67214,-0.2962 3.72341,0.10701c-0.01077,1.45818 -0.03758,2.51904 -0.27567,3.89155c-0.6446,3.09358 -1.07791,5.87549 -1.54276,9.04084c-0.08707,1.15188 -0.14258,1.92033 -0.19808,2.68878z" fill="#54C19C"/>
  <path id="svg_56" d="m125.9038,43.02038c-1.03526,-0.00588 -2.07053,-0.01176 -3.49403,-0.01953c3.35639,-8.98735 7.101,-17.97284 11.17485,-26.7449c0.34441,1.05411 0.35959,1.8948 0.37478,2.7355c0,0 -0.10341,0.47926 -0.40387,0.93325c-2.75089,8.00122 -5.20131,15.54845 -7.65173,23.09568z" fill="#5FC79B"/>
  <path id="svg_57" d="m228.34195,127.02196c-0.33391,-2.73286 -0.33646,-5.47724 -0.33746,-8.67998c2.42559,-1.4488 4.84967,-2.43925 7.79846,-3.01466c0.74943,2.50639 0.97415,4.59774 1.19888,6.68911c0,0 -0.00191,0.49677 -0.00397,0.74527c-2.2149,1.37828 -4.42773,2.50807 -6.81964,3.92092c-0.62101,0.29798 -1.06296,0.31289 -1.83627,0.33934z" fill="#F97487"/>
  <path id="svg_58" d="m286.39535,147.12723c-0.14495,-1.74039 0.86588,-4.11821 0.17539,-4.81847c-2.98248,-3.0247 -6.46304,-5.55832 -10.08624,-8.35255c-0.32392,-0.08194 -0.37836,-0.47516 -0.40277,-0.97202c-0.03611,-0.69571 -0.04776,-0.89456 -0.05945,-1.0934c-0.01621,-0.41754 -0.03241,-0.83508 -0.04978,-1.56654c6.70557,5.52324 13.41223,11.36041 20.59812,17.61464c-3.29346,-0.22751 -6.54788,-0.45233 -10.17527,-0.81166z" fill="#D5A973"/>
  <path id="svg_59" d="m103.95201,229.371c1.25708,-0.30072 2.26993,-0.3345 3.68322,0.03882c0.05501,4.1347 -0.29041,7.86229 -0.83421,11.7262c-0.44719,0.34503 -0.65266,0.5901 -1.08798,0.70105c-1.73848,-1.67762 -3.20374,-3.18477 -4.66902,-4.69191c0.88792,-2.50241 1.77584,-5.00483 2.90799,-7.77416z" fill="#14ACF0"/>
  <path id="svg_60" d="m100.79604,237.39798c1.71326,1.25432 3.17852,2.76147 4.77015,4.7511c-1.42257,3.26976 -2.97148,6.05702 -4.5204,8.84428c-1.22298,-0.65979 -2.44597,-1.31959 -4.01466,-2.04399c0.94184,-3.80925 2.22938,-7.55389 3.76491,-11.55139z" fill="#12B4F1"/>
  <path id="svg_61" d="m237.37418,121.94757c-0.59708,-2.02251 -0.8218,-4.11386 -1.20183,-6.56179c2.58354,-0.84601 5.32239,-1.33545 8.47644,-1.38013c0.72781,1.97133 1.04042,3.49791 1.35304,5.02448c-0.00139,0.16666 -0.00276,0.33332 -0.00909,0.75031c-2.75203,0.86631 -5.49913,1.4823 -8.61856,2.16713z" fill="#FB8088"/>
  <path id="svg_62" d="m72.94943,128.03867c-1.493,-0.49542 -2.986,-0.99083 -4.71637,-2.12354c0.49528,-3.26086 1.22793,-5.88443 1.96057,-8.50799c1.04087,0.47293 2.08174,0.94585 3.59687,1.76821c0.71917,0.56578 1.00078,0.71086 1.3191,0.78466c0,0 -0.07167,-0.00406 -0.01165,0.29138c1.91759,3.55733 2.12558,6.33295 -2.14852,7.78728z" fill="#C26BED"/>
  <path id="svg_63" d="m179.94583,114.79289c1.92433,-0.33249 3.84868,-0.66498 5.8757,-1.29255c2.29401,4.39566 4.48531,9.0864 6.40909,14.09587c-1.42087,-0.97161 -2.49747,-2.34242 -3.7457,-3.53334c-1.83758,-1.75319 -3.79756,-3.37809 -5.9362,-5.20257c-0.65642,-0.73373 -1.08203,-1.32253 -1.56293,-2.21385c-0.38351,-0.81954 -0.71174,-1.33655 -1.03996,-1.85356z" fill="#7FD196"/>
  <path id="svg_64" d="m69.93022,117.20106c-0.46923,2.82964 -1.20188,5.45321 -1.94626,8.49045c-2.23829,-0.39132 -4.46485,-1.19632 -6.685,-2.52202c0.56782,-3.08259 1.12922,-5.6445 1.69063,-8.2064c2.22574,0.6773 4.45148,1.3546 6.94063,2.23797z" fill="#C579EA"/>
  <path id="svg_65" d="m72.97709,128.25815c4.24644,-1.67381 4.03845,-4.44943 2.1307,-8.04129c0.66659,-0.33842 1.38337,-0.34688 2.45682,-0.39246c0.35666,-0.0371 0.4023,0.08968 0.43588,0.51315c2.02586,2.48867 4.01816,4.55386 6.01044,6.61905c-0.00509,1.07598 -0.01017,2.15195 -0.38904,3.62967c-1.12307,0.40572 -1.87232,0.40973 -2.95575,0.25882c-2.76304,-0.74554 -5.1919,-1.33618 -7.62076,-1.92683c0,0 -0.04063,-0.44061 -0.06829,-0.66011z" fill="#BB50F1"/>
  <path id="svg_66" d="m182.77953,119.00523c1.90783,1.67955 3.86781,3.30445 5.70539,5.05764c1.24823,1.19092 2.32483,2.56173 3.81492,3.87593c0.8487,1.78998 1.3607,3.55612 1.94659,5.7147c-0.89844,0.94995 -1.87079,1.5075 -3.34863,1.85134c-2.75821,-4.7845 -5.01091,-9.35531 -7.4029,-14.23607c-0.33133,-0.96114 -0.52336,-1.61234 -0.71537,-2.26354z" fill="#7BB994"/>
  <path id="svg_67" d="m62.91011,114.85272c-0.48193,2.67227 -1.04333,5.23418 -1.87593,8.08438c-2.13454,-0.53265 -3.9979,-1.35359 -6.09746,-2.41973c0.54149,-2.51476 1.31917,-4.78432 2.12718,-7.46605c0.48835,-0.31069 0.94635,-0.20921 1.86492,0.2348c0.71287,0.50341 0.98742,0.60302 1.28421,0.64138c0,0 0.44446,-0.05244 0.8548,0.26481c0.78294,0.44071 1.15554,0.56416 1.52814,0.68762c0,0 0.23466,-0.13759 0.31414,-0.02721z" fill="#C887E8"/>
  <path id="svg_68" d="m117.86931,74.35846c1.88702,-1.02313 3.6988,-1.69035 6.05429,-2.16933c0.73181,0.72667 0.91991,1.26512 1.14169,2.17879c0.4129,2.09797 0.79214,3.82069 1.10532,5.90236c-0.09625,0.59981 -0.12647,0.84069 -0.52438,1.00628c-1.08609,-0.29416 -1.80446,-0.51303 -2.52283,-0.7319c-1.71076,-0.85944 -3.42152,-1.71889 -5.29239,-2.76173c-0.11905,-1.14513 -0.07799,-2.10684 0.0383,-3.42447z" fill="#2F9592"/>
  <path id="svg_69" d="m254.3519,119.06677c-0.36141,-0.05284 -0.85756,-0.06145 -1.10474,-0.50652c-0.20236,-1.62179 -0.15754,-2.7985 -0.11272,-3.97521c5.00072,2.56282 10.00146,5.12564 15.19152,7.98836c-2.06821,-0.27416 -4.32578,-0.84821 -6.95767,-1.49582c-2.46793,-0.70169 -4.56144,-1.32983 -7.01639,-2.01081z" fill="#F79F83"/>
  <path id="svg_70" d="m252.84695,114.36491c0.24267,1.39684 0.19785,2.57355 0.15213,4.19191c-2.04156,0.44728 -4.08223,0.45292 -6.56005,0.46593c-0.74982,-1.51919 -1.06243,-3.04577 -1.40958,-4.89925c0.82187,-0.40136 1.67825,-0.47582 3.0372,-0.35638c0.50256,0.1939 0.91536,0.2254 0.91536,0.2254c1.19249,0.05075 2.38496,0.10151 3.86494,0.37239z" fill="#FA8D87"/>
  <path id="svg_71" d="m34.92704,100.66556c-0.51462,0.78512 -1.17106,1.26648 -1.9309,2.05067c-2.04645,-2.49652 -3.9895,-5.29588 -5.94738,-8.45314c2.56892,1.79429 5.15269,3.94649 7.87828,6.40247z" fill="#AB7BC3"/>
  <path id="svg_72" d="m77.14017,164.51907c0.24763,-0.23269 0.50526,-0.38855 0.87695,-0.12226c2.60735,1.02015 4.84302,1.77403 7.06142,2.87428c-0.04724,1.0368 -0.07719,1.72723 -0.10714,2.41766c-2.88682,-1.20055 -5.77363,-2.40109 -8.89121,-3.8392c0.11693,-0.52428 0.46464,-0.81104 1.05998,-1.33048z" fill="#244CAC"/>
  <path id="svg_73" d="m52.10294,201.55812c-0.22548,0.79204 -0.74279,1.3495 -1.35754,2.23265c-0.33085,0.43987 -0.53798,0.59023 -0.71883,0.7768c-1.58284,-1.32625 -3.16568,-2.6525 -4.74852,-3.97875c0.10626,-0.27988 0.21253,-0.55975 0.3188,-0.83963c2.07141,0.5248 4.14283,1.04958 6.50609,1.80893z" fill="#91BB82"/>
  <path id="svg_74" d="m134.23254,18.75526c-0.28833,-0.60451 -0.30351,-1.4452 -0.35856,-2.70539c0.78815,-2.01161 1.61616,-3.60373 2.74508,-5.38209c-0.50386,2.49293 -1.30862,5.17212 -2.38652,8.08748z" fill="#94DC97"/>
  <path id="svg_75" d="m52.02037,206.33847c0.76915,-0.13402 1.63454,0.0269 2.75427,0.65117c0.25435,0.46336 0.29162,0.94789 0.29162,0.94789c0,0 -0.2411,0.2617 -0.36158,0.39264c-0.943,-0.4783 -1.76554,-1.08754 -2.68431,-1.9917z" fill="#6ACC9A"/>
  <path id="svg_76" d="m195.94664,186.82065c0.03293,1.20361 0.06587,2.40724 0.12932,4.06256c0.01094,0.81993 -0.17206,1.06729 -0.75037,1.26694c-0.26983,-1.37464 -0.30775,-2.82241 -0.10481,-4.74796c0.24088,-0.47778 0.72586,-0.58154 0.72586,-0.58154z" fill="#E3298E"/>
  <path id="svg_77" d="m59.75898,202.93683c-0.39361,0.19185 -1.02375,0.23395 -1.76267,0.0809c0.43619,-0.20697 0.98117,-0.21879 1.76267,-0.0809z" fill="#91BB82"/>
  <path id="svg_78" d="m72.81523,202.94821c-0.38502,0.27394 -0.92949,0.398 -1.63103,0.34638c0.38581,-0.28254 0.9287,-0.38939 1.63103,-0.34638z" fill="#91BB82"/>
  <path id="svg_79" d="m36.84363,102.8079c-0.21956,-0.14096 -0.59341,-0.47435 -0.95403,-1.08177c0.2754,0.11376 0.53757,0.50155 0.95403,1.08177z" fill="#AB7BC3"/>
  <path id="svg_80" d="m139.47729,5.49757c-0.03172,0.02027 0.03173,-0.02027 0,0z" fill="#B5E38E"/>
  <path id="svg_81" d="m50.1923,204.78958c0.01512,-0.40858 0.22225,-0.55894 0.63582,-0.74255c0.17662,0.12526 0.17308,0.31997 0.1195,0.80263c-0.2299,0.24592 -0.40975,0.20393 -0.75532,-0.06008z" fill="#6ACC9A"/>
  <path id="svg_82" d="m209.11737,172.68762c-0.1416,0.02365 0.13692,-0.35025 0.20978,-0.43841c0.17369,0.12088 0.12668,0.28852 -0.20978,0.43841z" fill="#FC348D"/>
  <path id="svg_83" d="m73.5304,53.92857c-0.02677,0.08761 -0.06106,-0.00018 -0.06037,0.02394c0.0007,0.02413 0.08714,-0.11155 0.06037,-0.02394z" fill="#F7DE7E"/>
  <path id="svg_84" d="m203.74249,129.48062c0.05087,0.19444 -0.11044,0.32962 -0.44809,0.4899c-0.12277,-0.21248 0.01464,-0.40391 0.44809,-0.4899z" fill="#FC428C"/>
  <path id="svg_85" d="m75.03828,119.67543c-0.247,0.21078 -0.52861,0.0657 -0.93679,-0.32708c0.17965,-0.10346 0.52256,-0.03049 0.93679,0.32708z" fill="#BB50F1"/>
  <path id="svg_86" d="m173.24124,92.68778c-0.07509,0.08571 -0.22182,-0.13579 -0.25125,-0.19565c-0.02942,-0.05987 0.32633,0.10993 0.25125,0.19565z" fill="#8DDE9A"/>
  <path id="svg_87" d="m27.05476,93.68669c-0.2484,0.01811 -0.53137,-0.28882 -0.88232,-0.91252c0.23726,-0.01536 0.54251,0.28606 0.88232,0.91252z" fill="#AB7BC3"/>
  <path id="svg_88" d="m62.40517,114.62785c-0.1818,0.12862 -0.5544,0.00517 -1.15938,-0.29988c0.16795,-0.10512 0.56827,-0.02865 1.15938,0.29988z" fill="#C579EA"/>
  <path id="svg_89" d="m60.08184,113.72726c-0.1656,0.16188 -0.44015,0.06227 -0.86298,-0.23847c0.16474,-0.25511 0.4655,-0.19575 0.86298,0.23847z" fill="#C579EA"/>
  <path id="svg_90" d="m55.76206,202.33015c-0.04445,0.17527 -0.33305,0.21947 -0.70513,0.11791c0.098,-0.18018 0.2795,-0.21457 0.70513,-0.11791z" fill="#91BB82"/>
  <path id="svg_91" d="m50.91516,205.3439c0.22988,-0.09958 0.53486,0.07651 0.95464,0.49695c-0.21664,0.08913 -0.54808,-0.06608 -0.95464,-0.49695z" fill="#6ACC9A"/>
  <path id="svg_92" d="m248.90625,113.86888c0.07576,0.12364 -0.33704,0.09214 -0.43878,0.07533c-0.017,-0.2563 0.13792,-0.31703 0.43878,-0.07533z" fill="#FB8088"/>
  <path id="svg_93" d="m73.0276,129.3277c2.44664,0.18121 4.8755,0.77185 7.61937,1.90582c-2.00667,7.61443 -4.32836,14.68552 -6.65004,21.75661c-0.44159,-0.00132 -0.88318,-0.00264 -1.65584,-0.00662c-1.88718,-1.14165 -3.44331,-2.28064 -5.17009,-3.69628c1.83251,-6.70112 3.83568,-13.12562 5.8566,-19.95953z" fill="#B01FFB"/>
  <path id="svg_94" d="m182.54872,118.8603c0.42282,0.79613 0.61485,1.44733 0.59989,2.613c-2.28274,3.03864 -4.35848,5.5628 -6.43422,8.08696c-0.75025,-0.40578 -1.50051,-0.81157 -2.69719,-1.64527c-2.95316,-2.2938 -5.45989,-4.15969 -8.14736,-6.28396c-1.45781,-1.36075 -2.73488,-2.46312 -3.75125,-3.78244c2.79044,-3.70544 5.32019,-7.19392 8.1898,-10.63634c0.77662,-0.01299 1.21337,-0.07202 1.65012,-0.13106c0,0 0.03009,-0.05971 -0.12761,0.21451c-0.0769,0.45716 0.00391,0.6401 0.24021,1.08464c1.10104,1.00715 2.0466,1.7527 2.99215,2.49825c0,0 0.01194,0.07342 0.1484,0.26841c0.31277,0.4159 0.53495,0.57125 0.80299,0.66104c0,0 0.06926,0.10759 0.2144,0.31926c0.31035,0.43319 0.52431,0.58688 0.78703,0.67273c0,0 0.07233,0.11158 0.21764,0.32488c0.30876,0.43426 0.52104,0.58774 0.78213,0.67373c0,0 0.0728,0.11259 0.21862,0.32799c0.30909,0.43815 0.52085,0.59582 0.78108,0.68839c0,0 0.05385,0.0754 0.21388,0.34668c0.71059,0.77662 1.26113,1.28194 1.81166,1.78728c0.4256,0.58879 0.85121,1.17759 1.50763,1.91132z" fill="#FA8D87"/>
  <path id="svg_95" d="m166.0506,121.88941c2.50671,1.86589 5.01344,3.73178 7.67474,5.89457c-6.95805,3.45847 -10.72128,10.08182 -16.01642,15.82448c-2.84306,-1.01509 -5.27569,-2.30862 -7.64663,-3.94537c5.37056,-6.15337 10.67942,-11.96353 15.98831,-17.77368z" fill="#FF2E8D"/>
  <path id="svg_96" d="m176.8212,129.85501c1.96893,-2.81891 4.04467,-5.34307 6.4667,-8.07176c2.59899,4.36628 4.85169,8.93709 7.27791,13.80827c0.90025,2.4267 1.62698,4.55304 2.04759,7.10883c-1.80565,1.09619 -3.30516,1.76292 -4.80467,2.42966c-3.62689,-4.99343 -7.2538,-9.98685 -10.98753,-15.275z" fill="#FB8088"/>
  <path id="svg_97" d="m179.93994,161.64912c-1.36114,1.63216 -2.78433,2.92753 -4.74518,4.0215c-5.1217,-3.5709 -9.70576,-6.94044 -14.2278,-10.67555c1.0716,-2.25258 2.08115,-4.13959 3.09072,-6.02658c6.82638,2.12427 11.69104,6.76271 15.88226,12.68063z" fill="#E3298E"/>
  <path id="svg_98" d="m163.95564,148.6503c-0.90753,2.20518 -1.91708,4.09219 -3.3394,6.22433c-6.24838,-2.4069 -12.08401,-5.05897 -17.57321,-7.72674c5.61269,0.29403 5.06073,-3.98545 6.2049,-7.12909c0.41816,-0.0069 0.58543,-0.00971 0.75268,-0.0125c2.43262,1.29354 4.86525,2.58707 7.64748,3.94087c2.30157,1.50185 4.25354,2.94339 6.30755,4.70313z" fill="#E3388A"/>
  <path id="svg_99" d="m187.86507,145.49852c1.44317,-1.03525 2.94268,-1.70198 4.7843,-2.43047c1.42535,8.64298 2.50859,17.34774 3.3445,26.35608c-0.79453,-0.26696 -1.34169,-0.83751 -1.88887,-1.40806c-2.06121,-7.38301 -4.12241,-14.76602 -6.23993,-22.51755z" fill="#FC6B89"/>
  <path id="svg_100" d="m194.08173,168.44528c0.57045,0.14134 1.11761,0.71189 1.92199,1.44977c0.16132,5.19209 0.06543,10.21686 -0.03389,15.69367c-0.00341,0.45207 -0.02156,0.84377 -0.02238,1.03785c-0.00081,0.19408 -0.48579,0.29784 -0.72992,0.34343c-0.5491,-6.00145 -0.85408,-12.04849 -1.1358,-18.52472z" fill="#FD5C8B"/>
  <path id="svg_101" d="m82.98933,107.00471c-2.45829,-1.57112 -4.91659,-3.14223 -7.68007,-4.85858c-0.30609,-0.31228 -0.30699,-0.47934 -0.02062,-1.06309c5.45847,-6.05052 10.62967,-11.68436 15.80087,-17.31819c1.09067,0.33741 2.18134,0.67482 3.58987,1.14557c1.88614,1.22308 3.45442,2.31282 5.04377,3.96809c-5.56389,6.41909 -11.14885,12.27264 -16.73382,18.1262z" fill="#FF8173"/>
  <path id="svg_102" d="m43.09293,29.28678c0.80732,0.5634 1.88199,1.44384 2.29491,2.56746c3.91495,10.65335 9.90872,20.02063 17.15266,28.88263c-1.67702,1.2419 -3.25804,2.00784 -4.63735,3.04262c-1.71815,1.28897 -3.2699,2.79975 -4.8935,4.21475c-3.31879,-12.7592 -6.63758,-25.5184 -9.91672,-38.70746z" fill="#FFB365"/>
  <path id="svg_103" d="m90.89874,83.50598c-4.98043,5.8927 -10.15163,11.52654 -15.61109,17.32648c-2.84636,-2.64 -5.40446,-5.44609 -7.7664,-8.55623c3.33766,-2.87984 6.45587,-5.48473 9.62847,-8.02161c2.26633,-1.81221 4.60563,-3.53313 6.91237,-5.2948c2.21529,1.4291 4.43058,2.8582 6.83665,4.54616z" fill="#FF8B70"/>
  <path id="svg_104" d="m83.87755,78.69083c-2.1222,2.03066 -4.4615,3.75158 -6.72783,5.56379c-3.1726,2.53688 -6.29081,5.14177 -9.79509,7.73392c-2.25053,-2.45834 -4.13828,-4.93305 -5.83841,-7.75763c1.71658,-1.46713 3.36732,-2.45249 4.74944,-3.72877c2.98188,-2.75353 5.82581,-5.65645 8.72618,-8.49826c1.11373,0.59216 2.22746,1.18431 3.62097,1.9152c1.87992,1.59342 3.48006,3.04808 5.26474,4.77175z" fill="#FF966D"/>
  <path id="svg_105" d="m74.8215,71.72535c-2.73003,3.12034 -5.57396,6.02326 -8.55584,8.77679c-1.38212,1.27628 -3.03286,2.26164 -4.91165,3.43644c-1.65533,-2.37207 -2.96082,-4.80168 -3.9848,-7.64083c4.07681,-3.37985 7.8721,-6.35017 11.66739,-9.3205c1.87152,1.48986 3.74303,2.97971 5.7849,4.7481z" fill="#FFA06A"/>
  <path id="svg_106" d="m68.8676,66.69519c-3.62629,3.25239 -7.42158,6.22271 -11.55852,9.2571c-1.62531,-2.37573 -2.90898,-4.81551 -4.24604,-7.60668c1.57021,-1.76637 3.12196,-3.27715 4.84011,-4.56612c1.37931,-1.03478 2.96033,-1.80072 4.80898,-2.75432c0.76715,-0.01815 1.17717,0.03208 1.89071,0.1436c1.56762,1.78899 2.83168,3.51667 4.26476,5.52642z" fill="#FFA967"/>
  <path id="svg_107" d="m145.29156,211.74322c-0.04621,-0.75222 0.20978,-1.64996 0.81592,-3.06144c5.21332,-3.1976 10.07651,-5.88146 14.93969,-8.56532c5.09596,-1.44257 10.11933,-3.33478 15.31283,-4.17331c3.60266,-0.58168 7.43958,0.28747 11.47983,0.74112c-15.91612,-0.78533 -29.13149,6.91796 -42.54827,15.05895z" fill="#1652A9"/>
  <path id="svg_108" d="m191.80772,195.97005c0.22982,0.42138 0.45963,0.84279 0.71599,1.62547c-0.68081,0.20271 -1.38818,0.04414 -2.39447,-0.33209c-0.2744,-0.39441 -0.24986,-0.57115 0.11652,-1.01526c0.74855,-0.27097 1.15526,-0.27455 1.56196,-0.27812z" fill="#1652A9"/>
  <path id="svg_109" d="m105.96287,173.91664c0.02801,-0.18841 0.05603,-0.37685 0.59507,-0.82216c4.47371,-0.23892 8.43639,-0.22096 12.77862,-0.16385c1.13585,0.10385 1.89216,0.16857 2.65175,0.69055c0.00178,5.74718 0.00028,11.03705 -0.38077,16.4162c-6.11573,1.05788 -11.85191,2.02646 -17.59284,2.54024c0.64623,-6.52353 1.2972,-12.59225 1.94817,-18.66098z" fill="#1A81F3"/>
  <path id="svg_110" d="m90.00975,193.05662c-3.73726,-0.62957 -7.47452,-1.25916 -11.61157,-1.94328c-1.59303,-0.55797 -2.78626,-1.0614 -4.05209,-2.16147c0.84152,-5.35165 1.75562,-10.10666 2.66974,-14.86166c4.36073,0.00552 8.72147,0.01105 13.53291,0.45563c0.44837,6.42059 0.44603,12.40214 0.1982,18.41699c-0.24549,0.03331 -0.73719,0.09379 -0.73719,0.09379z" fill="#1E92F5"/>
  <path id="svg_111" d="m90.99243,192.92952c0.00234,-5.98154 0.00468,-11.96309 0.0215,-18.35143c4.68448,-0.4868 9.35447,-0.5668 14.48671,-0.65412c-0.18874,6.0614 -0.83971,12.13012 -1.46916,18.69955c0.02153,0.5007 0.03219,0.59857 -0.43492,0.54187c-4.51278,-0.11642 -8.55846,-0.17615 -12.60413,-0.23587z" fill="#1D8AF4"/>
  <path id="svg_112" d="m76.5745,174.06351c-0.47279,4.7817 -1.38689,9.53671 -2.47511,14.68219c-2.56386,-0.31311 -4.95361,-1.01668 -7.71909,-1.75189c-2.93265,-1.79677 -5.48959,-3.56191 -8.21968,-6.00821c0.49829,-3.45862 1.16975,-6.23607 1.84121,-9.01354c5.37711,0.68825 10.75423,1.3765 16.57267,2.09145z" fill="#219BF7"/>
  <path id="svg_113" d="m59.7352,171.74203c-0.40483,3.0075 -1.07629,5.78495 -1.76588,8.9706c-6.5856,-5.75653 -13.15307,-11.92125 -19.86713,-18.39226c0.59171,-0.37104 1.47549,-0.73369 2.04605,-0.45501c6.46779,3.15887 12.88765,6.4159 19.58696,9.87667z" fill="#25A2F5"/>
  <path id="svg_114" d="m118.95702,172.89148c-3.96269,-0.01796 -7.92537,-0.03592 -12.33088,-0.07449c-7.24118,-0.97725 -14.03955,-1.93389 -21.24632,-3.00937c-0.37847,-0.8093 -0.34852,-1.49973 -0.05501,-2.57611c0.42864,-0.40934 0.59374,-0.43271 1.13388,-0.32892c3.76667,0.76257 7.15829,1.39801 10.94758,2.14471c3.79781,0.42607 7.19795,0.74086 10.99003,1.17191c3.81945,0.40379 7.24696,0.69133 10.6548,1.26149c-0.04447,0.65866 -0.06927,1.03473 -0.09408,1.41078z" fill="#335FBB"/>
  <path id="svg_115" d="m191.80443,195.68065c-0.40341,0.29297 -0.81012,0.29655 -1.52263,0.30229c-11.74423,-6.93303 -24.30174,-5.11859 -36.66736,-4.54214c-3.28725,0.15325 -6.54518,0.93501 -10.22037,1.01596c-0.05976,-2.7318 0.28428,-5.05136 1.03966,-7.41126c12.67415,-2.60141 24.86153,-3.82382 36.75166,1.71291c0.81455,0.3793 1.94649,0.07701 3.23099,0.25148c2.4317,2.16366 4.56323,4.16754 6.69475,6.17142c0.23,0.73664 0.46001,1.47329 0.6933,2.49934z" fill="#164AB7"/>
  <path id="svg_116" d="m101.97765,204.11426c3.97723,-0.42487 7.95446,-0.84975 12.67839,-1.08367c1.94608,4.11657 3.14548,8.04218 4.14721,12.10108c-0.44672,0.33723 -0.6503,0.5794 -1.18725,0.92454c-5.12387,1.36077 -9.86887,2.6568 -14.61386,3.95285c0,0 -0.00586,-0.03277 -0.00732,-0.49464c-0.34003,-5.4413 -0.6786,-10.42073 -1.01717,-15.40016z" fill="#6DC796"/>
  <path id="svg_117" d="m101.5408,204.0797c0.77542,5.01399 1.11399,9.99342 1.44936,15.41874c-5.02455,0.46369 -10.04591,0.4815 -15.53215,0.03051c-0.46206,-4.15314 -0.45922,-7.83747 -0.45639,-11.52181c2.58239,-1.07861 5.16477,-2.15722 7.84762,-3.55449c2.15189,-0.34825 4.20331,-0.37788 6.69156,-0.37295z" fill="#79CE97"/>
  <path id="svg_118" d="m128.97478,198.90518c10.34535,-1.80777 20.69069,-3.61554 30.68477,-5.10327c-6.46033,3.60515 -12.56936,6.89026 -19.0261,10.23866c-3.44342,1.69425 -6.53912,3.32523 -9.65452,4.56307c-0.68117,-3.49491 -1.34267,-6.59668 -2.00415,-9.69846z" fill="#5ABC95"/>
  <path id="svg_119" d="m128.5788,198.93552c1.05746,3.07144 1.71896,6.17321 2.16589,9.91546c-4.05762,2.47611 -7.9007,4.31175 -11.74377,6.1474c-1.1994,-3.92561 -2.3988,-7.85122 -3.91545,-12.0032c4.15429,-1.49402 8.62583,-2.76169 13.49333,-4.05966z" fill="#64C195"/>
  <path id="svg_120" d="m144.02239,185.08581c-0.34404,2.31959 -0.68808,4.63915 -1.0407,7.35238c-5.98897,1.51729 -11.96936,2.6409 -18.63454,3.45527c-0.90058,-2.15207 -1.11635,-3.99489 -0.95462,-5.92386c5.7764,-1.4384 11.17528,-2.79063 16.91973,-4.15097c1.46707,-0.24968 2.58859,-0.49124 3.71013,-0.73282z" fill="#1852C1"/>
  <path id="svg_121" d="m123.01502,190.05576c0.21578,1.84281 0.43155,3.68563 0.90305,5.84481c-6.5195,1.87273 -13.29471,3.4291 -20.48477,4.57212c-0.06643,-2.69243 0.28196,-4.97152 0.63036,-7.2506c0.00001,0 -0.01065,-0.09787 -0.02743,-0.14377c5.7194,-1.01448 11.45558,-1.98306 17.82846,-3.01471c0.80791,-0.04466 0.97911,-0.02626 1.15033,-0.00785z" fill="#1E60C4"/>
  <path id="svg_122" d="m140.98114,203.97729c6.10905,-3.28512 12.21808,-6.57023 18.68741,-9.90393c0.65169,1.72481 0.9431,3.49816 1.30656,5.65731c-4.79112,3.06965 -9.65431,5.75351 -14.77324,8.61103c-1.68492,0.67185 -3.11407,1.17003 -4.86175,1.28626c-0.332,-2.1382 -0.34549,-3.89442 -0.35898,-5.65067z" fill="#3AAC97"/>
  <path id="svg_123" d="m103.59656,193.16539c0.1187,2.33578 -0.22969,4.61487 -0.57907,7.2774c-4.45562,0.31096 -8.91026,0.23847 -13.70632,-0.05952c-0.01017,-2.33223 0.3211,-4.43896 0.67548,-6.93619c0.0231,-0.39046 0.5148,-0.45094 0.76028,-0.48425c4.29117,0.02641 8.33685,0.08614 12.84963,0.20256z" fill="#246AC7"/>
  <path id="svg_124" d="m123.0885,80.94007c0.75327,-0.17654 1.47164,0.04233 2.78571,0.56997c5.12391,2.64481 9.65211,4.98086 14.11688,7.67873c-3.37032,4.50381 -6.6772,8.64579 -10.2995,12.78236c-0.73544,-0.0282 -1.15546,-0.05099 -1.82951,-0.30952c-3.09896,-1.39502 -5.94387,-2.5543 -9.04902,-3.93786c-2.8452,-1.67487 -5.43017,-3.12545 -8.01515,-4.57604c5.5056,-2.46372 10.192,-5.77739 12.29059,-12.20764z" fill="#FBB085"/>
  <path id="svg_125" d="m110.46097,93.12015c2.92192,1.47815 5.50689,2.92873 8.05745,4.77642c-4.57265,4.51557 -9.2704,8.4759 -13.57911,12.82192c-2.03188,2.04949 -3.31721,4.8391 -5.27429,7.29086c-0.77822,-0.00374 -1.22293,-0.00499 -1.89428,-0.25078c-2.7392,-1.7513 -5.25177,-3.25806 -7.70375,-5.10331c6.04789,-6.80344 12.0352,-13.26837 18.02252,-19.73332c0.67817,0.05688 1.35634,0.11377 2.37146,0.19821z" fill="#FF6B79"/>
  <path id="svg_126" d="m107.84748,92.6818c-5.74529,6.70509 -11.7326,13.17002 -18.06337,19.81651c-1.82257,-0.71136 -3.30169,-1.60425 -4.78081,-2.49715c-0.57277,-0.82359 -1.14552,-1.64719 -1.86612,-2.73361c5.43712,-6.1164 11.02208,-11.96995 16.77909,-18.13127c2.67777,0.89662 5.18348,2.10099 7.93121,3.54552z" fill="#FF7776"/>
  <path id="svg_127" d="m126.23666,79.91135c-0.37923,-1.72274 -0.75847,-3.44546 -0.74749,-5.54752c7.479,-0.73568 14.56779,-1.09204 21.6566,-1.44841c1.60937,2.40965 3.21873,4.8193 4.57246,7.84142c-2.0318,0.8227 -3.80592,1.05242 -5.58456,1.23894c-3.37769,0.35423 -6.758,0.68372 -10.49631,0.95759c-3.37296,-1.05795 -6.38683,-2.04999 -9.4007,-3.04202z" fill="#6DC796"/>
  <path id="svg_128" d="m135.99646,83.01927c3.37921,-0.33977 6.75952,-0.66926 10.13721,-1.02349c1.77864,-0.18652 3.55276,-0.41624 5.6622,-0.90528c1.20193,0.60622 2.07057,1.49125 3.12219,2.62949c3.61583,4.80961 7.04868,9.36604 10.75134,14.11315c0.26793,0.36294 0.26607,0.5352 -0.10113,0.93551c-10.10083,-5.09777 -19.83632,-10.42357 -29.57181,-15.74938z" fill="#64C195"/>
  <path id="svg_129" d="m147.05844,72.57507c-7.00148,0.69672 -14.09027,1.05308 -21.60295,1.41353c-0.61198,-0.53435 -0.80008,-1.0728 -1.16325,-1.83723c-0.2033,-2.24889 -0.23154,-4.27178 0.21756,-6.72573c6.4927,-0.43528 12.50807,-0.43952 18.52342,-0.44376c1.31264,2.41761 2.62527,4.83523 4.02522,7.59319z" fill="#76CC96"/>
  <path id="svg_130" d="m142.96973,64.63513c-5.95186,0.35099 -11.96723,0.35523 -18.44406,0.35503c-0.50093,-1.70447 -0.54036,-3.4045 -0.60108,-5.52791c0.03421,-1.19182 0.08972,-1.96027 0.62862,-3.10245c5.14175,-0.37074 9.80014,-0.36776 14.45851,-0.36479c0.57179,0.81979 1.14357,1.63958 1.86119,2.72597c0.77499,2.03353 1.40416,3.80046 2.09682,5.91415z" fill="#7FD196"/>
  <path id="svg_131" d="m125.91981,43.41771c2.43441,-7.94456 4.88483,-15.49179 7.60561,-23.24972c0.66257,1.15733 1.31593,2.50898 1.40305,3.89617c0.44073,7.01768 0.73422,14.04459 0.63963,21.50379c-3.5307,0.7669 -6.62169,1.09827 -9.71267,1.42965c0.0268,-1.06085 0.05361,-2.12171 0.06438,-3.57989z" fill="#94DC97"/>
  <path id="svg_132" d="m125.64414,47.30926c3.30227,-0.64304 6.39326,-0.97441 9.91023,-1.30231c1.42485,3.0773 2.42373,6.15111 3.43998,9.60649c-4.641,0.3786 -9.29939,0.37562 -14.40959,0.36294c-0.01853,-2.79163 0.41478,-5.57354 1.05938,-8.66712z" fill="#88D797"/>
  <path id="svg_133" d="m124.96181,223.89343c5.1129,-2.93327 10.2258,-5.86656 15.68272,-8.86842c-0.88952,2.40326 -2.12308,4.87509 -3.50449,7.65462c-2.27786,2.86824 -4.40788,5.42875 -7.11224,7.9851c-2.07156,-2.25987 -3.56878,-4.51559 -5.06599,-6.7713z" fill="#218AE0"/>
  <path id="svg_134" d="m141.16547,214.87654c-0.05655,-0.16414 0.14642,-0.40633 0.61032,-0.72362c0.04861,0.15862 -0.15531,0.39884 -0.61032,0.72362z" fill="#218AE0"/>
  <path id="svg_135" d="m86.08365,166.77542c-0.1651,0.02338 -0.3302,0.04675 -0.74156,0.1097c-2.48195,-0.71428 -4.71762,-1.46816 -7.1754,-2.5055c1.04046,-2.80883 2.43447,-5.2783 3.53782,-7.87144c2.18231,-5.12903 4.09109,-10.37611 6.33732,-15.47557c1.21057,-2.74828 2.88526,-5.29212 4.923,-7.99062c0.57244,-0.06242 1.00789,-0.01343 1.15593,0.18875c0.40452,0.41643 0.661,0.63071 0.84224,1.20296c-3.02177,9.04359 -7.08097,17.41142 -7.14694,26.90195c-0.01265,1.8172 -1.12657,3.62671 -1.73241,5.43977z" fill="#B945F3"/>
  <path id="svg_136" d="m74.2799,153.22082c2.03871,-7.30178 4.3604,-14.37287 6.70124,-21.83239c0.76843,-0.39243 1.51768,-0.39644 2.6415,-0.39868c0.37068,2.69938 0.80329,5.48874 0.26017,8.07301c-0.80535,3.83192 -2.37289,7.49774 -3.48271,11.27342c-0.91557,3.11484 -2.63003,4.4382 -6.1202,2.88464z" fill="#B32DF6"/>
  <path id="svg_137" d="m93.97272,133.02856c0,0 -0.43545,-0.04899 -0.65294,-0.06454c-3.01827,-1.96413 -5.81905,-3.91272 -8.96434,-5.93436c-2.33679,-2.13825 -4.32909,-4.20344 -6.34042,-6.62632c0.46483,-0.09417 0.94873,0.16936 1.93212,0.79564c5.00898,2.54428 9.51847,4.72581 14.25917,7.15637c3.67601,1.74684 7.12082,3.24464 10.68387,5.04086c0.78037,0.75183 1.44248,1.20526 2.10675,2.01056c0.00752,1.05391 0.01289,1.75592 -0.22346,2.48126c-0.24172,0.02335 -0.7255,0.06647 -0.99531,-0.15483c-2.43072,-1.03787 -4.59164,-1.85445 -7.03507,-2.8178c-1.08332,-0.40745 -1.88413,-0.66812 -2.89778,-1.13471c-0.76609,-0.38799 -1.31935,-0.57006 -1.87259,-0.75213z" fill="#9821D9"/>
  <path id="svg_138" d="m104.07444,267.65564c-1.54136,1.89856 -3.02017,3.4613 -4.78118,5.18994c-1.5072,-1.97818 -2.73219,-4.12219 -4.12584,-6.55591c1.62411,-4.16446 3.41688,-8.03924 5.7881,-11.93493c2.7423,2.20135 4.90614,4.42364 7.06998,6.64593c-1.29618,2.10639 -2.59235,4.21274 -3.95106,6.65497z" fill="#14ACF0"/>
  <path id="svg_139" d="m124.59828,223.97412c1.86074,2.17502 3.35796,4.43074 5.14263,6.86252c0.27687,0.61415 0.26628,1.05224 0.24928,1.8188c-2.46971,3.22409 -4.93302,6.11972 -7.83452,8.88063c-3.76772,-4.36596 -7.09725,-8.59721 -10.42678,-12.82846c4.16863,-1.55093 8.33726,-3.10187 12.86939,-4.73349z" fill="#1E93E4"/>
  <path id="svg_140" d="m111.35901,228.74576c3.69941,4.1931 7.02894,8.42435 10.50791,12.9619c-0.10207,1.10757 -0.35356,1.90886 -0.73845,2.99806c-1.96799,2.47717 -3.80259,4.66641 -6.12671,6.84833c-2.99382,-3.52297 -5.49809,-7.03865 -8.00237,-10.55434c0.34543,-3.7276 0.69085,-7.45519 1.01576,-11.57912c0.97765,-0.47644 1.97581,-0.55656 3.34386,-0.67483z" fill="#1A9BE8"/>
  <path id="svg_141" d="m135.63736,82.95337c10.09459,5.39171 19.83008,10.71751 29.92474,16.07361c2.34804,2.47427 4.33689,4.91826 6.36107,7.70823c-0.40141,0.40502 -0.83816,0.46405 -1.83304,0.21395c-5.04084,-3.30811 -9.52357,-6.30708 -14.22624,-9.54256c-5.41643,-3.01756 -10.61288,-5.79861 -15.80936,-8.57966c-4.52821,-2.33604 -9.05641,-4.67209 -13.8126,-7.24161c-0.19779,-0.47436 -0.16757,-0.71524 -0.07132,-1.31505c3.07992,0.6331 6.09379,1.62514 9.46675,2.68309z" fill="#61A88E"/>
  <path id="svg_142" d="m175.06036,110.56087c-0.94265,-0.42783 -1.88821,-1.17338 -2.64669,-2.22589c0.41664,-0.32908 0.64617,-0.35117 0.8757,-0.37327c0.58935,0.76047 1.17872,1.52096 1.77099,2.59916z" fill="#7BB994"/>
  <path id="svg_143" d="m180.98579,116.64644c-0.49523,-0.2028 -1.04577,-0.70812 -1.71107,-1.47501c-0.11473,-0.26156 0.27972,-0.3097 0.47542,-0.34412c0.52391,0.48259 0.85214,0.9996 1.23565,1.81913z" fill="#7BB994"/>
  <path id="svg_144" d="m173.08926,107.76492c-0.02942,0.21889 -0.25895,0.24098 -0.83108,0.30846c-0.42337,-0.13758 -0.50418,-0.32052 -0.4607,-0.77661c0.44675,-0.09165 0.76922,0.08985 1.29178,0.46815z" fill="#61A88E"/>
  <path id="svg_145" d="m178.9166,114.64326c-0.16128,0.07919 -0.37304,-0.07848 -0.62621,-0.47965c0.15715,-0.06875 0.36287,0.09336 0.62621,0.47965z" fill="#7BB994"/>
  <path id="svg_146" d="m175.90735,111.63381c-0.16074,0.08444 -0.38292,-0.07091 -0.6631,-0.46889c0.15889,-0.07974 0.37878,0.07751 0.6631,0.46889z" fill="#7BB994"/>
  <path id="svg_147" d="m176.91479,112.63043c-0.16143,0.08375 -0.37539,-0.06994 -0.63153,-0.46916c0.15648,-0.07111 0.36355,0.08798 0.63153,0.46916z" fill="#7BB994"/>
  <path id="svg_148" d="m177.91559,113.62981c-0.16083,0.08284 -0.37311,-0.07064 -0.62613,-0.46869c0.15562,-0.06974 0.36076,0.08924 0.62613,0.46869z" fill="#7BB994"/>
  <path id="svg_149" d="m191.07733,192.78592c-2.09772,-1.60849 -4.22925,-3.61237 -6.68413,-6.04474c-0.57484,-0.86917 -0.82634,-1.30983 -1.18269,-2.09177c-6.13936,-3.76622 -12.17386,-7.19111 -18.21237,-11.00555c-1.28291,-2.07004 -2.23294,-4.61139 -3.90921,-5.25182c-3.48877,-1.33288 -7.36206,-1.65931 -11.39942,-2.63488c-5.11059,-0.74384 -9.89907,-1.25214 -15.1314,-1.76165c-3.81165,-0.34422 -7.17946,-0.68727 -10.549,-1.44186c1.80602,-5.55615 3.61378,-10.70075 5.7957,-15.82935c3.25121,0.9108 6.12827,1.80562 9.28415,2.9119c12.043,5.0834 24.27266,9.02496 34.34569,17.28337c0.33529,0.27489 0.95616,0.20146 1.44391,0.29039c7.27157,7.18456 13.08222,15.30696 16.19877,25.57596z" fill="#CA9BE2"/>
  <path id="svg_150" d="m174.93495,166.90567c-0.54414,0.21536 -1.16501,0.28879 -1.5003,0.0139c-10.07303,-8.25841 -22.30269,-12.19997 -34.29396,-17.75597c-0.17434,-1.31539 -0.12159,-1.94676 0.25776,-2.51444c0.5385,0.12939 0.75038,0.19509 0.9692,0.41502c0.00691,0.15422 0.38484,0.29567 0.38484,0.29567c0,0 0.31245,-0.31909 0.58241,-0.26663c0.63388,0.05844 0.9978,0.06442 1.36171,0.07038c5.83562,2.65206 11.67125,5.30413 17.85759,8.07663c4.9348,3.48995 9.51886,6.85949 14.31784,10.48932c0.18308,0.46412 0.15118,0.66796 0.06291,1.17612z" fill="#8122BB"/>
  <path id="svg_151" d="m140.63345,204.04057c0.36118,1.69297 0.37467,3.44919 0.40331,5.6487c-7.45728,4.59409 -14.9297,8.74489 -22.72937,12.56485c-0.32234,-2.30809 -0.31743,-4.28537 -0.31252,-6.26263c0.15808,-0.28042 0.36166,-0.52259 0.80838,-0.85982c4.04074,-1.96894 7.88382,-3.80458 11.96112,-5.88756c3.32996,-1.87831 6.42566,-3.50929 9.86908,-5.20354z" fill="#44B598"/>
  <path id="svg_152" d="m117.616,216.05621c0.37396,1.91254 0.36905,3.88982 0.35086,6.28119c-4.71449,1.46672 -9.4157,2.51932 -14.5416,3.52631c-0.42452,-1.70439 -0.42435,-3.36319 -0.42366,-5.43832c4.74553,-1.71238 9.49053,-3.00841 14.6144,-4.36918z" fill="#54C19C"/>
  <path id="svg_153" d="m93.9751,128.10632c-4.50949,-2.18153 -9.01898,-4.36306 -13.76203,-6.81598c1.27576,-3.79423 2.78509,-7.31708 4.54233,-11.06456c1.72702,0.66828 3.20614,1.56117 4.96814,2.61102c2.79543,1.66371 5.308,3.17047 7.98871,5.2746c-1.13362,3.72989 -2.4354,6.86241 -3.73715,9.99492z" fill="#EF7474"/>
  <path id="svg_154" d="m106.80102,241.13602c2.70265,3.37938 5.20692,6.89506 7.9571,10.638c-0.38957,1.34936 -1.02503,2.47148 -1.71504,3.91406c-1.52536,1.87143 -2.99617,3.42236 -4.74228,5.14297c-2.43914,-2.05267 -4.60298,-4.27496 -7.05783,-6.67425c-0.2688,-0.92328 -0.24659,-1.66957 -0.21077,-2.78964c1.56251,-3.16106 3.11142,-5.94832 4.80719,-9.04759c0.30897,-0.59345 0.51444,-0.83852 0.96163,-1.18355z" fill="#17A3EC"/>
  <path id="svg_155" d="m86.58505,208.00964c0.41374,3.68184 0.4109,7.36617 0.40545,11.50843c-0.44371,0.46472 -0.8848,0.47154 -1.65679,0.48356c-10.07991,-3.9619 -19.82893,-7.929 -29.92271,-11.98012c-0.34474,-0.08398 -0.38201,-0.56851 -0.38421,-0.81182c1.9304,-0.16898 3.87434,-0.20205 5.79341,0.00052c5.08802,0.53709 10.16528,1.176 15.69907,1.77415c3.5179,-0.32425 6.58356,-0.64824 10.06578,-0.97472z" fill="#88D797"/>
  <path id="svg_156" d="m275.90112,132.02534c0.13285,0.06429 0.1445,0.26314 0.15454,0.76208c-0.09298,-0.00912 -0.18432,-0.31832 -0.15454,-0.76208z" fill="#FBB085"/>
  <path id="svg_157" d="m156.08383,97.64311c4.48273,2.99897 8.96546,5.99794 13.66644,9.26c-2.31149,3.75156 -4.84124,7.24004 -7.93646,10.81848c-1.61407,-0.26655 -2.66267,-0.62307 -3.91969,-1.23233c-3.4372,-1.9968 -6.66599,-3.74088 -10.01186,-5.70448c-0.39847,-0.62169 -0.67985,-1.02385 -0.81218,-1.74673c3.10396,-4.01212 6.05886,-7.70353 9.01375,-11.39494z" fill="#FB9986"/>
  <path id="svg_158" d="m158.10254,116.742c1.0486,0.35652 2.0972,0.71304 3.45058,1.19655c1.58184,1.22936 2.85891,2.33173 4.31672,3.69248c-5.12813,6.06853 -10.43699,11.87869 -15.80755,18.03206c-0.22893,0.346 -0.3962,0.34881 -1.12535,0.199c-3.01958,-1.38887 -5.47727,-2.62512 -7.69069,-4.08864c5.78161,-6.49533 11.31895,-12.76339 16.85629,-19.03145z" fill="#FF378A"/>
  <path id="svg_159" d="m141.00198,136.00072c2.45769,1.23625 4.91538,2.4725 7.68406,3.86548c-0.58228,3.29624 -0.03032,7.57572 -5.64301,7.28169c-0.71033,0.00975 -1.07425,0.00377 -1.88455,-0.08715c-0.4464,-0.08492 -0.79775,-0.15078 -0.79775,-0.15078c-0.2119,-0.06571 -0.42378,-0.13141 -1.21185,-0.44869c-2.10083,-0.98474 -3.6255,-1.71792 -5.14667,-2.8453c0.67162,-3.14167 1.33974,-5.8891 2.37377,-8.61847c1.78595,0.34646 3.20597,0.67485 4.626,1.00322z" fill="#E64585"/>
  <path id="svg_160" d="m123.39253,189.9696c-0.54873,0.06775 -0.71993,0.04935 -1.14828,0.00473c-0.25566,-5.3161 -0.25416,-10.60597 0.20992,-16.40298c5.82763,-0.22349 11.19268,0.06015 16.55508,0.77887c0.31738,4.11554 0.63742,7.79603 0.95745,11.47652c-5.39889,1.35223 -10.79777,2.70446 -16.57417,4.14286z" fill="#1877F1"/>
  <path id="svg_161" d="m139.0119,173.91515c-5.36505,-0.28365 -10.7301,-0.56729 -16.561,-0.80111c-1.22218,-0.01484 -1.97849,-0.07956 -3.11434,-0.18341c-0.35473,-0.4152 -0.32993,-0.79127 -0.29745,-1.53854c0.00767,-0.3712 -0.08476,-0.52429 0.38035,-0.45725c5.17285,0.0553 9.88059,0.04354 15.02817,0.10845c5.48255,0.29561 10.52527,0.51454 15.98776,0.82249c5.13546,0.78188 9.85111,1.47474 14.56676,2.16761c6.0345,3.42491 12.069,6.8498 17.83701,10.58981c-13.31794,-9.1637 -28.29622,-11.02803 -43.82726,-10.70805z" fill="#244CAC"/>
  <path id="svg_162" d="m96.05815,133.98662c0.80081,0.26066 1.60162,0.52133 2.65769,1.31108c-1.59438,6.32513 -3.42983,12.12573 -5.29784,17.91585c-1.72704,5.35315 -1.19389,6.16641 4.56885,7.04524c0.00628,0.24409 0.02205,0.73216 0.0154,1.13675c-0.33565,2.78322 -0.66465,5.16186 -0.99364,7.5405c-3.39163,-0.63544 -6.78325,-1.27088 -10.54992,-2.03345c0.2308,-1.94023 1.34472,-3.74974 1.35737,-5.56694c0.06597,-9.49053 4.12517,-17.85836 7.40174,-26.92453c0.50014,-0.3952 0.67025,-0.40985 0.84035,-0.4245z" fill="#BB50F1"/>
  <path id="svg_163" d="m119.05877,171.1095c-3.41551,-0.19896 -6.84302,-0.4865 -10.65928,-1.30432c-0.06525,-2.9479 0.25825,-5.36553 0.84257,-7.79618c0.43452,-0.02208 0.60823,-0.03111 1.21743,-0.0348c2.4668,0.01793 4.4981,0.03052 6.82215,0.17129c1.10615,0.36325 1.91955,0.59832 2.72974,1.24187c-0.35448,2.76582 -0.70575,5.12312 -1.05703,7.48044c0,0 0.09243,0.15309 0.10442,0.2417z" fill="#C26BED"/>
  <path id="svg_164" d="m108.98125,162.02203c-0.32351,2.41762 -0.64701,4.83525 -0.97371,7.6669c-3.40332,0.09923 -6.80346,-0.21556 -10.60127,-0.64163c-0.06867,-2.4899 0.26033,-4.86854 1.02211,-7.65063c2.13983,-0.39585 3.84691,-0.38823 5.84422,-0.15195c1.76303,0.41156 3.23584,0.59444 4.70865,0.77731z" fill="#BE5CEF"/>
  <path id="svg_165" d="m139.00925,174.35022c15.53369,-0.75505 30.51197,1.10928 43.93477,10.61429c0.62284,0.46684 0.87434,0.9075 1.14903,1.61687c-0.96117,0.25404 -2.09311,0.55633 -2.90766,0.17703c-11.89013,-5.53673 -24.07751,-4.31432 -36.75166,-1.71291c-1.53288,0.28189 -2.6544,0.52345 -4.12147,0.77313c-0.66559,-3.67238 -0.98563,-7.35287 -1.30301,-11.46841z" fill="#176EEE"/>
  <path id="svg_166" d="m128.1161,101.89735c0.42003,0.02279 0.84005,0.04558 1.82113,0.3042c2.74122,1.37772 4.9214,2.5196 7.07754,4.03695c-3.8452,4.82842 -7.75531,9.20916 -11.45231,13.76292c-2.03718,2.5093 -3.71634,5.30928 -5.87565,7.8307c-3.10703,-1.37101 -5.8953,-2.59452 -8.93744,-3.9395c-0.75343,-0.38101 -1.25298,-0.64054 -1.73643,-1.26271c0.46654,-1.40314 0.66178,-2.69953 1.40787,-3.44357c5.83884,-5.82275 11.78337,-11.53952 17.69529,-17.28899z" fill="#FF587F"/>
  <path id="svg_167" d="m137.0388,105.86302c-2.18017,-1.14187 -4.36035,-2.28375 -6.78614,-3.65605c3.06123,-4.37241 6.36811,-8.51439 9.73843,-13.0182c5.25992,2.41922 10.45637,5.20027 15.8728,8.21783c-2.73495,3.92792 -5.68985,7.61933 -9.15028,11.50722c-3.56197,-0.88594 -6.61838,-1.96836 -9.67481,-3.0508z" fill="#FCA485"/>
  <path id="svg_168" d="m127.86208,101.66161c-5.6579,5.98521 -11.60243,11.70198 -17.44127,17.52473c-0.74609,0.74404 -0.94133,2.04043 -1.72115,3.29749c-3.11996,-1.34628 -5.91055,-2.90912 -8.70115,-4.47197c1.62359,-2.45427 2.90892,-5.24388 4.9408,-7.29337c4.30871,-4.34602 9.00646,-8.30635 13.83935,-12.59763c3.13955,0.98645 5.98446,2.14573 9.08342,3.54075z" fill="#FF647C"/>
  <path id="svg_169" d="m99.66502,118.00935c3.12409,1.56536 5.91468,3.1282 9.01854,4.83713c0.81283,0.4056 1.31238,0.66513 2.04884,1.41613c-1.82889,3.27271 -3.89468,6.05395 -5.96047,8.83518c-3.4448,-1.4978 -6.88961,-2.9956 -10.56562,-4.74244c1.07054,-3.38154 2.37232,-6.51406 3.73257,-9.99939c0.50321,-0.3516 0.94792,-0.35035 1.72614,-0.34661z" fill="#ED6679"/>
  <path id="svg_170" d="m95.84531,133.78069c0.04274,0.22058 -0.12737,0.23523 -0.55226,0.27244c-0.51129,-0.19168 -0.76777,-0.40596 -1.17229,-0.82239c0.4052,-0.02011 0.95846,0.16196 1.72455,0.54995z" fill="#B639F5"/>
  <path id="svg_171" d="m104.89018,133.39621c1.94754,-3.07965 4.01333,-5.86089 6.0961,-9.01212c2.80523,0.85351 5.5935,2.07702 9.02453,3.50414c1.76077,0.83601 2.8788,1.4684 3.97769,2.47443c-1.03015,3.25306 -2.04116,6.1325 -3.43437,8.93945c-4.77459,-1.46408 -9.16698,-2.85565 -13.55936,-4.24722c-0.66211,-0.45342 -1.32422,-0.90685 -2.10459,-1.65868z" fill="#EB5A7E"/>
  <path id="svg_172" d="m103.98237,161.01605c-1.70708,-0.00761 -3.41416,-0.01523 -5.54736,-0.02395c-0.42611,-0.00115 -0.44188,-0.48922 -0.44153,-1.14675c2.68507,-7.7353 5.36979,-14.81308 8.05449,-21.89085c0,0 0.48378,-0.04312 0.98259,0.08638c1.3611,0.61296 2.22338,1.09642 3.00558,1.99171c-2.07131,7.26903 -4.06254,14.12625 -6.05377,20.98346z" fill="#C26BED"/>
  <path id="svg_173" d="m105.77816,137.7332c-2.41489,7.29907 -5.09961,14.37685 -7.79096,21.86806c-5.76309,-0.2213 -6.29624,-1.03456 -4.5692,-6.38771c1.86801,-5.79012 3.70346,-11.59072 5.58036,-17.76906c2.18816,0.43426 4.34908,1.25084 6.7798,2.28871z" fill="#BE5CEF"/>
  <path id="svg_174" d="m110.11622,139.62076c-0.86228,-0.48346 -1.72456,-0.96692 -2.84394,-1.60321c-0.26246,-0.85486 -0.26783,-1.55687 -0.27535,-2.61078c4.39022,1.03969 8.78261,2.43126 13.82897,4.09559c4.82692,1.68444 8.99986,3.09612 13.17282,4.5078c1.52466,0.73319 3.04933,1.46637 4.82356,2.38742c0.19682,0.81926 0.14407,1.45063 0.0396,2.55458c-2.9288,-0.42224 -5.80586,-1.31706 -9.36328,-2.42579c-2.95482,-1.0051 -5.22932,-1.7963 -7.79851,-2.77686c-2.08836,-0.75993 -3.88202,-1.33052 -5.94957,-2.11517c-2.0607,-0.81392 -3.84751,-1.41374 -5.6343,-2.01358z" fill="#9224D0"/>
  <path id="svg_175" d="m121.99479,143.93887c2.27449,0.7912 4.54899,1.5824 7.12968,2.57151c-1.50158,5.34252 -3.30934,10.48712 -5.51546,16.05142c-1.4637,0.41884 -2.52905,0.41795 -3.59441,0.41705c-0.81341,-0.23504 -1.62681,-0.47011 -2.71133,-1.22351c1.38311,-6.28439 3.03731,-12.05043 4.69152,-17.81647z" fill="#CB94E6"/>
  <path id="svg_176" d="m120.01138,163.38736c1.06858,-0.40761 2.13393,-0.40672 3.59938,-0.414c3.76789,0.33488 7.1357,0.67793 10.94783,1.42199c0.11264,2.4578 -0.21908,4.51453 -0.55081,6.57126c-4.70773,0.01177 -9.41547,0.02353 -14.58832,-0.03177c-0.11383,-2.42436 0.23744,-4.78166 0.59192,-7.54748z" fill="#C579EA"/>
  <path id="svg_177" d="m134.44763,171.0433c-0.10812,-2.13342 0.2236,-4.19015 0.55481,-6.64674c4.788,0.10846 9.57648,0.61676 14.68485,1.77495c0.32267,2.30165 0.3255,3.95346 0.32834,5.60525c-5.04273,-0.21893 -10.08545,-0.43786 -15.568,-0.73346z" fill="#C887E8"/>
  <path id="svg_178" d="m150.43541,171.86578c-0.42262,-1.74081 -0.42545,-3.39262 -0.42604,-5.45877c3.7175,0.32572 7.59079,0.65215 11.07956,1.98503c1.67627,0.64043 2.6263,3.18178 3.90921,5.2518c-4.71164,-0.30332 -9.42729,-0.99618 -14.56273,-1.77806z" fill="#CB94E6"/>
  <path id="svg_179" d="m140.36765,147.06418c-0.00692,-0.15422 0.34443,-0.08836 0.52087,-0.05589c0.17642,0.03247 -0.13603,0.35156 -0.13603,0.35156c0,0 -0.37793,-0.14145 -0.38484,-0.29567z" fill="#E3388A"/>
  <path id="svg_180" d="m124.00763,129.98903c-1.11802,-0.6324 -2.23605,-1.26479 -3.67807,-1.95329c1.51656,-2.72504 3.19572,-5.52502 5.2329,-8.03432c3.697,-4.55376 7.60711,-8.9345 11.45231,-13.76292c3.08046,0.70696 6.13687,1.78938 9.54978,2.99604c0.63786,0.52639 0.91924,0.92855 1.26116,1.89815c-1.65684,2.92257 -3.30046,5.33605 -5.1073,7.62045c-3.52886,4.46157 -7.14894,8.85099 -11.10809,13.24803c-2.78545,-0.68554 -5.19406,-1.34884 -7.60269,-2.01214z" fill="#FF4C83"/>
  <path id="svg_181" d="m131.98715,132.02342c3.58232,-4.41929 7.2024,-8.80871 10.73126,-13.27028c1.80684,-2.2844 3.45046,-4.69788 5.2244,-7.40092c3.28532,1.39616 6.51411,3.14024 9.95131,5.13704c-5.32892,6.5208 -10.86626,12.78886 -16.64787,19.28419c-1.6643,-0.1011 -3.08432,-0.42949 -5.08301,-1.00691c-1.7778,-1.08041 -2.97694,-1.91177 -4.17609,-2.74312z" fill="#FF4087"/>
  <path id="svg_182" d="m131.61032,132.00117c1.57598,0.8536 2.77512,1.68496 4.18698,2.74727c-0.45535,2.97843 -1.12347,5.72586 -1.79509,8.86753c-4.17645,-1.01749 -8.34939,-2.42917 -12.79411,-4.04111c0.73924,-3.0797 1.75025,-5.95914 2.7804,-9.2122c2.42776,0.28967 4.83637,0.95297 7.62182,1.63851z" fill="#E95081"/>
  <path id="svg_183" d="m121.70009,143.74951c-1.35951,5.9554 -3.01371,11.72144 -4.68956,17.87763c-2.05294,0.37758 -4.08424,0.36499 -6.55389,-0.05037c1.56368,-6.84464 3.56573,-13.28649 5.56777,-19.72835c1.79366,0.57057 3.58732,1.14116 5.67568,1.90109z" fill="#C887E8"/>
  <path id="svg_184" d="m115.75052,141.63434c-1.72815,6.65594 -3.7302,13.09779 -5.72937,19.93709c-0.17086,0.40646 -0.34457,0.41549 -0.77909,0.43756c-1.73362,-0.16983 -3.20643,-0.35271 -4.96946,-0.76427c1.701,-7.08588 3.69223,-13.9431 5.76354,-21.21213c1.86687,0.18801 3.65368,0.78783 5.71438,1.60175z" fill="#C579EA"/>
 </g>
</svg>